<svg width="36" height="36" viewBox="0 0 16 16" fill="none" xmlns="http://www.w3.org/2000/svg">
<rect width="16" height="16" rx="8" fill="white"/>
<g clip-path="url(#clip0_8587_13652)">
<path d="M15.2173 9.60481C15.0907 9.60481 14.964 9.60436 14.8377 9.60525C14.8187 9.60525 14.8147 9.60013 14.8147 9.58185C14.8156 9.42849 14.8156 9.27535 14.8147 9.12199C14.8147 9.10371 14.8203 9.10059 14.837 9.10059C14.9547 9.10125 15.0724 9.10103 15.1899 9.10059C15.2043 9.10059 15.2124 9.10148 15.2119 9.11998C15.2115 9.13737 15.207 9.14249 15.1894 9.14249C15.0887 9.14182 14.9879 9.14272 14.8874 9.1416C14.8655 9.14138 14.8606 9.14829 14.8613 9.16857C14.8628 9.21405 14.8624 9.25952 14.8613 9.30499C14.8608 9.32149 14.8662 9.32595 14.8825 9.32595C14.9716 9.32528 15.0608 9.32572 15.15 9.3255C15.164 9.3255 15.1765 9.32216 15.1765 9.34556C15.1765 9.36852 15.1638 9.36407 15.1511 9.36407C15.0619 9.36407 14.9727 9.36451 14.8836 9.36384C14.8671 9.36384 14.8606 9.36674 14.8611 9.38524C14.8624 9.43696 14.8622 9.48867 14.8611 9.54039C14.8606 9.55755 14.8651 9.56268 14.8827 9.56246C14.9941 9.56156 15.1056 9.56201 15.2168 9.56201V9.60481H15.2173Z" fill="#080808"/>
<path d="M5.48137 7.71257C5.49386 7.71012 5.49988 7.6992 5.5079 7.69117C6.4867 6.71282 7.46549 5.73425 8.44362 4.75501C8.46346 4.73517 8.47238 4.73784 8.49043 4.7559C8.97838 5.24474 9.467 5.73291 9.9554 6.22131C9.96275 6.22866 9.96833 6.23869 9.97969 6.24115C9.98014 6.24895 9.98571 6.25363 9.99084 6.25853C10.066 6.33365 10.1411 6.40878 10.2162 6.4839C10.2224 6.49014 10.2285 6.49682 10.2383 6.49727C10.2378 6.50908 10.2481 6.51377 10.2545 6.52023C10.3426 6.60873 10.4311 6.69677 10.5191 6.78527C10.5256 6.79196 10.535 6.79686 10.5372 6.80823C10.4886 6.81469 10.4404 6.82049 10.3923 6.82718C10.2969 6.84077 10.2037 6.86418 10.1134 6.89762C10.0945 6.90453 10.0836 6.90096 10.0697 6.88714C9.54324 6.35996 9.01606 5.83322 8.48954 5.30559C8.4697 5.28576 8.46101 5.28821 8.44273 5.30649C7.29475 6.45514 6.14609 7.60357 4.99766 8.75178C4.99142 8.75802 4.98473 8.76359 4.97804 8.76961C4.92856 8.66953 4.90181 8.56387 4.8978 8.45219C4.89579 8.39869 4.89735 8.34542 4.90359 8.29236C5.00724 8.19339 5.10822 8.09152 5.20786 7.98854C5.21076 7.98653 5.2141 7.98497 5.21656 7.98252C5.30171 7.89759 5.38664 7.81266 5.47157 7.72773C5.47602 7.72327 5.48048 7.71904 5.48115 7.71213L5.48137 7.71257Z" fill="#015387"/>
<path d="M5.48123 7.71242C5.48056 7.71911 5.4761 7.72356 5.47164 7.72802C5.38672 7.81295 5.30156 7.89788 5.21664 7.98281C5.21418 7.98526 5.21084 7.98682 5.20794 7.98883C5.16358 7.94536 5.119 7.90189 5.07464 7.85842C5.07487 7.85218 5.07219 7.84862 5.0655 7.84928C5.05971 7.8426 5.05413 7.83569 5.04789 7.82945C4.7882 7.56976 4.52829 7.31029 4.26927 7.05015C4.25277 7.03366 4.24519 7.03366 4.2287 7.05015C3.27041 8.00911 2.31167 8.96762 1.35339 9.92636C1.33823 9.94152 1.32374 9.94776 1.30234 9.94753C1.13917 9.94664 0.975999 9.94709 0.813052 9.94709H0.78764L0.782959 9.93996C0.790538 9.93416 0.798786 9.92926 0.80525 9.92257C1.94677 8.78149 3.08829 7.64019 4.22959 6.49867C4.24185 6.48641 4.24898 6.47861 4.26615 6.49578C4.66895 6.89969 5.07241 7.30293 5.47588 7.70618C5.47789 7.70818 5.47945 7.71019 5.48123 7.71242Z" fill="#123C63"/>
<path d="M5.06541 7.84974C5.0721 7.84907 5.07477 7.85242 5.07455 7.85888C4.98739 7.99173 4.92765 8.13551 4.90358 8.29311C4.89734 8.34616 4.896 8.39944 4.89778 8.45293C4.90179 8.56439 4.92854 8.67027 4.97803 8.77036C5.01169 8.84882 5.05984 8.91815 5.114 8.98324C5.25243 9.14908 5.42429 9.27347 5.61132 9.37823C5.90266 9.54163 6.21496 9.65241 6.53483 9.74381C6.82417 9.82651 7.11774 9.88892 7.41376 9.94153C7.41689 9.9422 7.42001 9.94309 7.4229 9.94755C7.41332 9.94755 7.40373 9.94755 7.39415 9.94755C6.47977 9.94755 5.5654 9.94755 4.65102 9.94799C4.63007 9.94799 4.61691 9.94108 4.60332 9.92592C4.47581 9.78393 4.38353 9.6221 4.32669 9.43998C4.32535 9.43597 4.3229 9.43218 4.32089 9.42839C4.31175 9.3769 4.29704 9.32674 4.29035 9.2748C4.27943 9.1872 4.27943 9.0996 4.28589 9.01155C4.28857 8.97521 4.29949 8.93999 4.29815 8.90344C4.29815 8.90344 4.29793 8.90388 4.29793 8.90366C4.29971 8.90187 4.30172 8.89987 4.3035 8.89809C4.36101 8.63215 4.49833 8.40924 4.67532 8.20773C4.78789 8.07956 4.91361 7.96543 5.04691 7.8591C5.05226 7.85487 5.05694 7.84863 5.06519 7.84974H5.06541Z" fill="#939598"/>
<path d="M10.2386 6.49813C10.2287 6.49746 10.2227 6.49099 10.2165 6.48475C10.1414 6.40963 10.0662 6.33451 9.99113 6.25939C9.98622 6.25449 9.98065 6.24981 9.97998 6.242C10.1362 6.06635 10.2925 5.8907 10.449 5.71504C10.7334 5.39584 11.0178 5.07685 11.3018 4.7572C11.3163 4.74093 11.3226 4.73892 11.3384 4.75653C11.8105 5.28661 12.2909 5.80911 12.767 6.3354C12.9253 6.51039 13.0842 6.68493 13.2427 6.85969C13.2481 6.86548 13.2532 6.87172 13.2588 6.87796C13.251 6.88621 13.2416 6.88198 13.2336 6.88198C13.0882 6.8822 12.9429 6.88198 12.7978 6.88265C12.7791 6.88265 12.767 6.87707 12.7545 6.86325C12.4052 6.47918 12.0555 6.09533 11.706 5.71148C11.5854 5.57907 11.465 5.44688 11.3446 5.31448C11.3368 5.306 11.329 5.29776 11.3203 5.28862C11.2258 5.39472 11.1322 5.49971 11.0386 5.6047C10.7762 5.89917 10.5136 6.19385 10.251 6.48832C10.2477 6.49211 10.2428 6.49478 10.2388 6.4979L10.2386 6.49813Z" fill="#123C63"/>
<path d="M14.6718 8.52435V8.48935C14.6718 8.04554 14.672 7.60173 14.6711 7.15791C14.6711 7.12894 14.6796 7.12314 14.7063 7.12425C14.7563 7.12648 14.8062 7.12604 14.8561 7.12425C14.8789 7.12336 14.886 7.12849 14.8858 7.15301C14.8847 7.41582 14.8851 7.67885 14.8851 7.94166C14.8851 8.23479 14.8849 8.52814 14.8858 8.82127C14.8858 8.84467 14.8807 8.85114 14.8568 8.85025C14.8033 8.84824 14.7498 8.84913 14.6963 8.85002C14.68 8.85025 14.6684 8.84623 14.6573 8.83353C14.4041 8.54642 14.1502 8.25998 13.8965 7.9731C13.7543 7.81238 13.6123 7.65166 13.4701 7.49094C13.4674 7.48782 13.4645 7.48492 13.4578 7.47779V7.51056C13.4578 7.94724 13.4576 8.38392 13.4585 8.8206C13.4585 8.84556 13.4518 8.85114 13.4282 8.85025C13.3747 8.84846 13.3212 8.84846 13.2677 8.85025C13.247 8.85091 13.2434 8.84467 13.2434 8.82528C13.2441 8.45547 13.2438 8.08566 13.2438 7.71563C13.2438 7.52661 13.2443 7.3378 13.2432 7.14877C13.2432 7.12804 13.2487 7.12381 13.2684 7.12403C13.329 7.12537 13.3896 7.12492 13.4502 7.12403C13.4641 7.12403 13.473 7.12849 13.4819 7.13897C13.8544 7.57275 14.2269 8.00631 14.5996 8.43987C14.6223 8.46617 14.6448 8.49248 14.672 8.52391L14.6718 8.52435Z" fill="#010101"/>
<path d="M11.2549 8.42868C11.2957 8.47504 11.3338 8.52074 11.3748 8.56399C11.392 8.58226 11.3879 8.59296 11.3734 8.60901C11.3039 8.68659 11.2208 8.74454 11.1265 8.78779C10.9392 8.87383 10.7417 8.89902 10.538 8.88431C10.3708 8.87227 10.2119 8.83059 10.0665 8.74499C9.82712 8.60389 9.69249 8.39324 9.6586 8.11861C9.63698 7.94519 9.65303 7.77533 9.72347 7.61372C9.81732 7.39817 9.98071 7.25439 10.1994 7.17749C10.5054 7.06982 10.8146 7.06246 11.1218 7.17593C11.223 7.21337 11.3142 7.26799 11.3855 7.35158C11.3989 7.36718 11.4004 7.37744 11.3862 7.39371C11.348 7.43718 11.3119 7.48265 11.2749 7.52701C11.2702 7.53258 11.2669 7.54506 11.256 7.53102C11.1581 7.40463 11.0219 7.34578 10.8701 7.31859C10.674 7.28359 10.4798 7.29228 10.2917 7.36317C10.0322 7.46103 9.87728 7.68505 9.8726 7.96235C9.8697 8.13132 9.90826 8.28713 10.0166 8.42043C10.1162 8.54326 10.2471 8.61704 10.3991 8.65315C10.6062 8.70219 10.8106 8.69439 11.0094 8.61481C11.1028 8.57736 11.182 8.51963 11.2442 8.43982C11.2468 8.43648 11.2502 8.43336 11.2549 8.42846V8.42868Z" fill="#010101"/>
<path d="M6.72485 8.85052C6.78103 8.73795 6.83519 8.62917 6.88936 8.52039C7.10648 8.0846 7.32337 7.64903 7.54048 7.21324C7.55475 7.18471 7.56277 7.14682 7.58573 7.13054C7.61003 7.11338 7.64948 7.12809 7.68203 7.12519C7.70677 7.12297 7.71859 7.1321 7.72973 7.15484C7.87172 7.4473 8.01528 7.73887 8.15816 8.03065C8.28968 8.29948 8.42097 8.56831 8.55249 8.83737C8.55405 8.84049 8.55539 8.84338 8.55873 8.85052C8.50479 8.85052 8.45374 8.85052 8.4027 8.85052C8.37439 8.85052 8.33984 8.85921 8.31933 8.84628C8.29882 8.83335 8.29191 8.79836 8.27965 8.77272C8.07167 8.33582 7.86392 7.89869 7.65461 7.45844C7.63031 7.50749 7.60691 7.55407 7.58417 7.60111C7.39559 7.98741 7.20723 8.37371 7.01887 8.76002C7.00951 8.77919 6.99747 8.79746 6.99123 8.81753C6.98254 8.84561 6.96626 8.8523 6.9384 8.85141C6.86885 8.84918 6.7993 8.85074 6.72508 8.85074L6.72485 8.85052Z" fill="#010101"/>
<path d="M11.3469 8.85076C11.4031 8.73796 11.4574 8.62918 11.5116 8.5204C11.7289 8.08395 11.9463 7.64749 12.1638 7.21081C12.1777 7.18294 12.1855 7.14616 12.208 7.13056C12.2318 7.11406 12.2702 7.12878 12.3016 7.12521C12.3292 7.12209 12.3415 7.13346 12.3531 7.15753C12.4938 7.44754 12.636 7.73687 12.7777 8.02643C12.9097 8.29593 13.0417 8.56565 13.1734 8.83537C13.1752 8.83916 13.1767 8.84318 13.1796 8.85053C13.1154 8.85053 13.0535 8.84697 12.992 8.85187C12.9487 8.85521 12.9315 8.83783 12.9144 8.80149C12.7031 8.35433 12.4902 7.90807 12.2762 7.45868C12.2523 7.50683 12.2294 7.55275 12.2069 7.59889C12.006 8.01083 11.8052 8.42277 11.6046 8.83471C11.5994 8.84518 11.5943 8.8512 11.5809 8.85098C11.5043 8.85031 11.4276 8.85053 11.3464 8.85053L11.3469 8.85076Z" fill="#010101"/>
<path d="M9.71949 8.84966H9.68761C9.33474 8.84966 8.98188 8.84966 8.62901 8.85011C8.60694 8.85011 8.59937 8.84677 8.59937 8.8218C8.60026 8.26586 8.60026 7.70992 8.59937 7.15399C8.59937 7.1317 8.60293 7.123 8.6279 7.12412C8.68206 7.12635 8.73668 7.1259 8.79084 7.12412C8.81247 7.12345 8.81893 7.12835 8.81893 7.15131C8.81782 7.33833 8.81826 7.52558 8.81826 7.7126C8.81826 8.01464 8.81871 8.31669 8.81759 8.61873C8.81759 8.64325 8.82473 8.64681 8.84702 8.64681C9.07238 8.64592 9.29796 8.64659 9.52333 8.64592C9.54049 8.64592 9.55052 8.6506 9.56011 8.66509C9.60424 8.7313 9.6564 8.79081 9.71926 8.84966H9.71949Z" fill="#010101"/>
<path d="M4.29893 8.90283C4.30027 8.93939 4.28935 8.97461 4.28667 9.01094C4.27998 9.09899 4.27998 9.18637 4.29113 9.2742C4.29759 9.32614 4.31253 9.37629 4.32167 9.42778C4.15226 9.59742 3.98284 9.76683 3.81366 9.93647C3.80697 9.94315 3.8005 9.94716 3.7907 9.94716C3.61348 9.94694 3.43627 9.94716 3.25928 9.94716C3.25683 9.9378 3.26418 9.93535 3.26797 9.93156C3.60746 9.59185 3.94718 9.25235 4.28689 8.91286C4.29046 8.9093 4.29514 8.9064 4.29915 8.90306L4.29893 8.90283Z" fill="#015387"/>
<path d="M6.39326 9.35114C6.39326 9.27446 6.3937 9.19778 6.39281 9.12132C6.39281 9.10483 6.39705 9.10037 6.41354 9.10059C6.49201 9.10149 6.57047 9.09993 6.64871 9.10126C6.77109 9.10349 6.85624 9.16546 6.88522 9.27134C6.91776 9.38926 6.87742 9.50451 6.78179 9.56447C6.73944 9.591 6.6924 9.60415 6.64247 9.60459C6.56668 9.60548 6.49089 9.60415 6.41533 9.60526C6.39549 9.60548 6.39237 9.5988 6.39259 9.58096C6.39348 9.50428 6.39303 9.4276 6.39303 9.35114H6.39326ZM6.43985 9.35337C6.43985 9.41579 6.44051 9.47798 6.4394 9.5404C6.43895 9.55845 6.44475 9.56246 6.46191 9.56224C6.52076 9.56113 6.57939 9.56224 6.63824 9.56157C6.67702 9.56113 6.71402 9.55154 6.74791 9.53259C6.82771 9.48868 6.86449 9.39684 6.84242 9.29787C6.82214 9.2067 6.75593 9.14986 6.65852 9.14518C6.59187 9.14206 6.525 9.14451 6.45812 9.14339C6.44185 9.14317 6.4394 9.14941 6.43962 9.16368C6.44029 9.22698 6.43985 9.29007 6.43985 9.35337Z" fill="#080808"/>
<path d="M7.51828 9.17388C7.51828 9.31364 7.51805 9.44628 7.51872 9.57913C7.51872 9.59741 7.51671 9.60543 7.49509 9.60543C7.47302 9.60543 7.47146 9.59696 7.47146 9.57913C7.47213 9.43112 7.47146 9.28333 7.47213 9.13532C7.47213 9.12417 7.46389 9.10522 7.47793 9.10255C7.49598 9.09898 7.51716 9.09363 7.5341 9.11369C7.59674 9.1877 7.66094 9.26059 7.72447 9.33393C7.78109 9.39902 7.8377 9.46433 7.89499 9.53009C7.90324 9.52229 7.89923 9.51293 7.89923 9.50512C7.89945 9.37851 7.8999 9.25212 7.899 9.12551C7.899 9.10634 7.90235 9.09987 7.9233 9.09965C7.94515 9.09965 7.9447 9.10968 7.9447 9.12551C7.94426 9.2753 7.9447 9.42488 7.94426 9.57467C7.94426 9.58448 7.9505 9.60053 7.93868 9.60276C7.92286 9.60566 7.90458 9.61101 7.88964 9.59384C7.82723 9.52184 7.7637 9.45096 7.70039 9.37963C7.6411 9.31253 7.58158 9.24566 7.51828 9.17388Z" fill="#080808"/>
<path d="M11.1914 9.61631C11.0958 9.61586 11.0118 9.58755 10.9538 9.50753C10.8404 9.35104 10.9355 9.12769 11.1281 9.0967C11.2276 9.08065 11.3212 9.09537 11.3967 9.1667C11.4754 9.2407 11.4948 9.33433 11.4663 9.4362C11.4382 9.5365 11.364 9.58822 11.2659 9.60984C11.2414 9.61519 11.2166 9.6172 11.1914 9.61631ZM11.203 9.57418C11.2128 9.57351 11.2227 9.57284 11.2322 9.57195C11.3776 9.55724 11.465 9.42394 11.4179 9.28573C11.3852 9.18943 11.3112 9.14374 11.214 9.13616C11.0343 9.12189 10.9309 9.25519 10.9585 9.40454C10.9779 9.50931 11.0824 9.58242 11.203 9.57418Z" fill="#080808"/>
<path d="M10.5487 9.6157C10.4431 9.61392 10.3521 9.58048 10.2971 9.48419C10.2226 9.35401 10.2696 9.13244 10.4883 9.09566C10.5817 9.08005 10.6704 9.09432 10.7442 9.1574C10.828 9.22918 10.8521 9.3228 10.8258 9.42779C10.7997 9.53256 10.7244 9.58628 10.6232 9.60902C10.5987 9.61459 10.5739 9.61593 10.5487 9.6157ZM10.5523 9.57424C10.5619 9.57357 10.5753 9.57335 10.5886 9.57157C10.6702 9.5602 10.7375 9.5252 10.7699 9.44562C10.8028 9.36471 10.7941 9.28513 10.7378 9.21714C10.6771 9.14425 10.5949 9.12575 10.5039 9.13801C10.3675 9.15651 10.2823 9.2858 10.3198 9.41821C10.347 9.5145 10.4344 9.57402 10.5525 9.57402L10.5523 9.57424Z" fill="#080808"/>
<path d="M12.8629 9.40873C12.926 9.47471 12.9861 9.53757 13.0486 9.60289C13.0169 9.60667 12.9919 9.60824 12.969 9.58082C12.9253 9.52932 12.8769 9.48185 12.831 9.43214C12.8221 9.42255 12.8136 9.41698 12.7993 9.4172C12.7414 9.41809 12.6834 9.41832 12.6257 9.4172C12.6081 9.41676 12.6056 9.42277 12.6059 9.43838C12.6067 9.48831 12.6054 9.53824 12.6067 9.58795C12.6072 9.60601 12.5981 9.60645 12.5858 9.60467C12.5749 9.60311 12.5584 9.61292 12.5586 9.5884C12.5593 9.43169 12.5593 9.27498 12.5586 9.11806C12.5586 9.1 12.5675 9.10067 12.58 9.10067C12.6665 9.10089 12.7527 9.10022 12.8392 9.10089C12.9306 9.10178 12.9857 9.14726 12.9959 9.2284C13.0073 9.31868 12.9645 9.38198 12.8765 9.40561C12.8731 9.4065 12.8698 9.40695 12.8633 9.40828L12.8629 9.40873ZM12.7338 9.14414C12.6964 9.14414 12.6589 9.14436 12.6217 9.14391C12.6108 9.14391 12.6061 9.14614 12.6061 9.1584C12.6065 9.22706 12.6063 9.29549 12.6061 9.36415C12.6061 9.37262 12.6061 9.37975 12.6181 9.37953C12.6955 9.3773 12.773 9.3851 12.8502 9.37529C12.913 9.36727 12.9558 9.31511 12.9525 9.25537C12.9487 9.18649 12.9083 9.14703 12.8377 9.14458C12.8029 9.14347 12.7681 9.14458 12.7336 9.14458L12.7338 9.14414Z" fill="#080808"/>
<path d="M11.5673 9.35316C11.5673 9.27648 11.5678 9.20002 11.5671 9.12334C11.5671 9.10752 11.5686 9.10016 11.5878 9.10061C11.6672 9.10194 11.7463 9.10127 11.8257 9.10105C11.8455 9.10105 11.8647 9.10373 11.8836 9.10863C11.9574 9.12735 11.9949 9.18865 11.9882 9.27804C11.981 9.37412 11.9291 9.42516 11.8324 9.42895C11.7675 9.4314 11.7024 9.43118 11.6373 9.43073C11.6201 9.43073 11.6146 9.43497 11.615 9.45258C11.6164 9.49716 11.6139 9.54174 11.6161 9.5861C11.6172 9.60929 11.6034 9.60438 11.5907 9.60483C11.5771 9.60527 11.566 9.6075 11.5664 9.58566C11.568 9.50808 11.5671 9.43073 11.5671 9.35316H11.5673ZM11.6157 9.26623C11.6157 9.30189 11.6157 9.33734 11.6157 9.373C11.6157 9.38236 11.6148 9.39061 11.6288 9.39017C11.7017 9.38794 11.7748 9.39529 11.8473 9.38526C11.8861 9.37991 11.9175 9.36141 11.9338 9.32307C11.9743 9.22744 11.9226 9.14586 11.8194 9.14452C11.7581 9.14363 11.6966 9.14519 11.6353 9.14385C11.6179 9.1434 11.6148 9.14942 11.6152 9.16503C11.6164 9.19869 11.6157 9.23257 11.6157 9.26645V9.26623Z" fill="#080808"/>
<path d="M12.0705 9.35226C12.0705 9.27558 12.0712 9.19912 12.0701 9.12244C12.0699 9.10483 12.0748 9.10037 12.0921 9.10059C12.2089 9.10149 12.3255 9.10126 12.4423 9.10059C12.4591 9.10059 12.4651 9.10371 12.4655 9.12222C12.466 9.14317 12.455 9.14228 12.4406 9.14228C12.3407 9.14206 12.241 9.14272 12.1412 9.14161C12.1202 9.14139 12.1138 9.14696 12.1147 9.16814C12.1164 9.21183 12.1167 9.25552 12.1147 9.29898C12.1135 9.32217 12.122 9.3264 12.1432 9.32618C12.2306 9.32506 12.3177 9.32573 12.4051 9.32573C12.4192 9.32573 12.4319 9.32239 12.4319 9.34579C12.4319 9.36875 12.4187 9.36407 12.4062 9.36407C12.3188 9.36407 12.2315 9.36519 12.1443 9.3634C12.1187 9.36296 12.1138 9.37121 12.1147 9.39439C12.1164 9.44254 12.116 9.49069 12.1147 9.53861C12.1142 9.55711 12.1187 9.56246 12.1378 9.56246C12.2422 9.56157 12.3463 9.56246 12.4506 9.56157C12.4669 9.56157 12.4742 9.56402 12.4733 9.58275C12.4727 9.5988 12.4706 9.60548 12.4519 9.60526C12.3315 9.60437 12.2114 9.60415 12.091 9.60526C12.0716 9.60526 12.0701 9.59791 12.0703 9.5823C12.071 9.50562 12.0705 9.42916 12.0705 9.35248V9.35226Z" fill="#010101"/>
<path d="M6.98286 9.3527C6.98286 9.27602 6.9833 9.19956 6.98241 9.12288C6.98241 9.10594 6.98598 9.10037 7.00403 9.10059C7.12084 9.10148 7.23742 9.10126 7.35423 9.10059C7.37005 9.10059 7.37763 9.1026 7.37785 9.12177C7.37785 9.14205 7.36827 9.14228 7.35333 9.14228C7.25258 9.14183 7.15205 9.1425 7.05129 9.14161C7.03324 9.14161 7.02655 9.14562 7.02699 9.16501C7.02833 9.21138 7.02833 9.25774 7.02699 9.30389C7.02655 9.32194 7.03257 9.32595 7.04973 9.32595C7.13979 9.32506 7.22962 9.32573 7.31967 9.32551C7.33394 9.32551 7.34375 9.32439 7.34397 9.34535C7.34419 9.36808 7.33171 9.36407 7.31878 9.36407C7.22873 9.36407 7.13867 9.36452 7.04884 9.36363C7.03101 9.36363 7.02655 9.36875 7.02699 9.38592C7.02811 9.43763 7.02833 9.48935 7.02699 9.54084C7.02655 9.55979 7.03346 9.56224 7.04973 9.56224C7.15405 9.56157 7.25815 9.56224 7.36247 9.56157C7.37808 9.56157 7.38588 9.56291 7.38566 9.5823C7.38566 9.60147 7.37986 9.60526 7.3618 9.60526C7.24322 9.60437 7.12485 9.60415 7.00626 9.60526C6.98486 9.60548 6.98197 9.59857 6.98219 9.57985C6.9833 9.50406 6.98264 9.42849 6.98264 9.3527H6.98286Z" fill="#010101"/>
<path d="M13.657 9.60229C13.62 9.61187 13.5982 9.60162 13.5844 9.56707C13.5708 9.53363 13.5498 9.50309 13.5331 9.47077C13.5275 9.46007 13.5213 9.45561 13.5086 9.45583C13.4114 9.4565 13.3142 9.4565 13.217 9.45583C13.2045 9.45583 13.1978 9.46007 13.1925 9.47099C13.1758 9.50421 13.1579 9.5372 13.1406 9.57019C13.1267 9.59604 13.1034 9.60674 13.0706 9.60229C13.1035 9.54076 13.1363 9.47991 13.1689 9.41905C13.2228 9.31897 13.2767 9.21888 13.3302 9.11835C13.3376 9.10453 13.3465 9.09962 13.3617 9.10074C13.3753 9.10163 13.3855 9.10118 13.394 9.11657C13.4794 9.27528 13.5661 9.43354 13.6524 9.59181C13.6539 9.59471 13.6552 9.59783 13.6575 9.60229H13.657ZM13.5066 9.41794C13.458 9.32855 13.4112 9.24251 13.3623 9.1529C13.3144 9.24206 13.2678 9.329 13.2201 9.41794H13.5063H13.5066Z" fill="#080808"/>
<path d="M8.39524 9.6019C8.45833 9.48487 8.52052 9.36941 8.58271 9.25394C8.60745 9.2078 8.6322 9.16165 8.65716 9.11573C8.66898 9.09411 8.70553 9.09344 8.71712 9.11462C8.80428 9.27422 8.89144 9.43405 8.97837 9.59388C8.97949 9.59611 8.97994 9.59878 8.9806 9.60123C8.93491 9.61059 8.93379 9.61015 8.91262 9.57159C8.89478 9.53882 8.87651 9.5065 8.85934 9.47328C8.85288 9.4608 8.84574 9.45545 8.83081 9.45567C8.73563 9.45656 8.64022 9.45656 8.54504 9.45567C8.53055 9.45567 8.52275 9.45991 8.51628 9.47284C8.5009 9.50382 8.48151 9.53302 8.46858 9.5649C8.45476 9.59945 8.43403 9.61372 8.39502 9.60212L8.39524 9.6019ZM8.83148 9.41778C8.78266 9.32817 8.73585 9.2419 8.68725 9.15296C8.63933 9.24235 8.59274 9.32906 8.54526 9.41778H8.83148Z" fill="#080808"/>
<path d="M10.1797 9.49509C10.203 9.51857 10.2021 9.54027 10.177 9.56018C10.0678 9.64645 9.86068 9.63196 9.77174 9.53009C9.69974 9.44761 9.68971 9.35176 9.72516 9.25234C9.75948 9.15605 9.83817 9.11213 9.93469 9.09675C10.0118 9.08449 10.0874 9.08962 10.158 9.12751C10.1739 9.13598 10.1879 9.14668 10.2011 9.15894C10.2104 9.16786 10.212 9.17477 10.2029 9.18569C10.1904 9.20063 10.1848 9.20888 10.1645 9.18926C10.109 9.13598 10.0375 9.13019 9.96478 9.13621C9.92912 9.1391 9.89479 9.1478 9.86269 9.16474C9.78311 9.20687 9.74254 9.29247 9.75659 9.38832C9.77018 9.4806 9.83594 9.54881 9.93068 9.56642C9.99889 9.57913 10.0653 9.57445 10.1275 9.5399C10.148 9.52853 10.1641 9.51203 10.1797 9.49487V9.49509Z" fill="#080808"/>
<path d="M14.7509 9.10212C14.6945 9.21759 14.6392 9.3306 14.5837 9.44384C14.5599 9.49243 14.5356 9.5408 14.5122 9.58962C14.5075 9.59921 14.5035 9.60545 14.491 9.60523C14.4798 9.605 14.4736 9.60166 14.4685 9.59163C14.3884 9.43113 14.308 9.27086 14.2277 9.11037C14.2271 9.10881 14.2273 9.10702 14.2271 9.10524C14.2687 9.09387 14.2736 9.09588 14.2919 9.13266C14.3546 9.25927 14.4172 9.38566 14.4798 9.51227C14.483 9.51851 14.4867 9.52431 14.4919 9.53367C14.5246 9.46568 14.5561 9.40059 14.5875 9.3355C14.6191 9.26997 14.6506 9.20443 14.682 9.13868C14.6946 9.11237 14.7177 9.10026 14.7511 9.10234L14.7509 9.10212Z" fill="#080808"/>
<path d="M8.21465 9.37499C8.21465 9.30633 8.21353 9.23768 8.21531 9.16924C8.21576 9.14717 8.2084 9.14338 8.18857 9.14383C8.13596 9.14517 8.08335 9.14338 8.03097 9.14472C8.01313 9.14517 8.01024 9.13848 8.01113 9.1231C8.0118 9.10995 8.01001 9.10059 8.02963 9.10059C8.16783 9.1017 8.30582 9.10148 8.44402 9.10059C8.46163 9.10059 8.46453 9.1066 8.46408 9.12199C8.46364 9.13625 8.46297 9.14495 8.44447 9.1445C8.39275 9.14316 8.34104 9.14561 8.28954 9.14338C8.26369 9.14227 8.2599 9.15141 8.2599 9.17437C8.26101 9.3099 8.2599 9.4452 8.26101 9.58073C8.26101 9.60102 8.25566 9.60548 8.23605 9.60592C8.21465 9.60637 8.21442 9.59701 8.21442 9.58073C8.21509 9.51208 8.21465 9.44342 8.21465 9.37499Z" fill="#080808"/>
<path d="M9.04609 9.35031C9.04609 9.27385 9.04698 9.19717 9.04542 9.12071C9.04498 9.09976 9.05501 9.10042 9.0695 9.10065C9.08354 9.10065 9.09357 9.09931 9.09335 9.12049C9.09224 9.25758 9.09335 9.39467 9.09223 9.53175C9.09223 9.55471 9.09602 9.56296 9.12166 9.56252C9.21862 9.56073 9.31581 9.56207 9.41278 9.56162C9.42838 9.56162 9.43619 9.56319 9.43596 9.58236C9.43596 9.6013 9.43039 9.60532 9.41211 9.60532C9.2982 9.60442 9.18407 9.6042 9.07017 9.60532C9.04921 9.60554 9.04542 9.59952 9.04565 9.58013C9.04676 9.50367 9.04609 9.42699 9.04609 9.35053V9.35031Z" fill="#080808"/>
<path d="M13.8375 9.377C13.8375 9.44566 13.8366 9.51431 13.8382 9.58275C13.8386 9.6037 13.8299 9.60415 13.8136 9.60504C13.7942 9.60615 13.7927 9.59768 13.7927 9.58208C13.7931 9.4441 13.7927 9.30589 13.7936 9.16791C13.7936 9.14741 13.788 9.14272 13.7684 9.14317C13.7158 9.14451 13.6632 9.14272 13.6108 9.14428C13.5914 9.14473 13.5898 9.13693 13.5894 9.1211C13.5889 9.10461 13.5936 9.10037 13.6101 9.10059C13.7474 9.10126 13.8845 9.10149 14.0218 9.10059C14.0397 9.10059 14.0419 9.10706 14.0417 9.12199C14.0414 9.13626 14.041 9.14473 14.0221 9.14428C13.9703 9.14295 13.9186 9.1454 13.8671 9.14317C13.8413 9.14206 13.8368 9.15119 13.8375 9.17438C13.839 9.24214 13.8379 9.30968 13.8379 9.37745L13.8375 9.377Z" fill="#010101"/>
<path d="M14.1125 9.35356C14.1125 9.27621 14.1134 9.19864 14.1121 9.12129C14.1116 9.10123 14.1203 9.09989 14.1355 9.10078C14.1489 9.10145 14.16 9.09789 14.1598 9.12018C14.1587 9.27488 14.1587 9.4298 14.1598 9.5845C14.1598 9.60389 14.1522 9.60501 14.1368 9.60545C14.1201 9.6059 14.1116 9.60389 14.1121 9.58316C14.1134 9.5067 14.1125 9.43025 14.1125 9.35356Z" fill="#080808"/>
<g clip-path="url(#clip1_8587_13652)">
<path d="M15.2173 9.60481C15.0907 9.60481 14.964 9.60436 14.8377 9.60525C14.8187 9.60525 14.8147 9.60013 14.8147 9.58185C14.8156 9.42849 14.8156 9.27535 14.8147 9.12199C14.8147 9.10371 14.8203 9.10059 14.837 9.10059C14.9547 9.10125 15.0724 9.10103 15.1899 9.10059C15.2043 9.10059 15.2124 9.10148 15.2119 9.11998C15.2115 9.13737 15.207 9.14249 15.1894 9.14249C15.0887 9.14182 14.9879 9.14272 14.8874 9.1416C14.8655 9.14138 14.8606 9.14829 14.8613 9.16857C14.8628 9.21405 14.8624 9.25952 14.8613 9.30499C14.8608 9.32149 14.8662 9.32595 14.8825 9.32595C14.9716 9.32528 15.0608 9.32572 15.15 9.3255C15.164 9.3255 15.1765 9.32216 15.1765 9.34556C15.1765 9.36852 15.1638 9.36407 15.1511 9.36407C15.0619 9.36407 14.9727 9.36451 14.8836 9.36384C14.8671 9.36384 14.8606 9.36674 14.8611 9.38524C14.8624 9.43696 14.8622 9.48867 14.8611 9.54039C14.8606 9.55755 14.8651 9.56268 14.8827 9.56246C14.9941 9.56156 15.1056 9.56201 15.2168 9.56201V9.60481H15.2173Z" fill="#080808"/>
<path d="M5.48137 7.71257C5.49386 7.71012 5.49988 7.6992 5.5079 7.69117C6.4867 6.71282 7.46549 5.73425 8.44362 4.75501C8.46346 4.73517 8.47238 4.73784 8.49043 4.7559C8.97838 5.24474 9.467 5.73291 9.9554 6.22131C9.96275 6.22866 9.96833 6.23869 9.97969 6.24115C9.98014 6.24895 9.98571 6.25363 9.99084 6.25853C10.066 6.33365 10.1411 6.40878 10.2162 6.4839C10.2224 6.49014 10.2285 6.49682 10.2383 6.49727C10.2378 6.50908 10.2481 6.51377 10.2545 6.52023C10.3426 6.60873 10.4311 6.69677 10.5191 6.78527C10.5256 6.79196 10.535 6.79686 10.5372 6.80823C10.4886 6.81469 10.4404 6.82049 10.3923 6.82718C10.2969 6.84077 10.2037 6.86418 10.1134 6.89762C10.0945 6.90453 10.0836 6.90096 10.0697 6.88714C9.54324 6.35996 9.01606 5.83322 8.48954 5.30559C8.4697 5.28576 8.46101 5.28821 8.44273 5.30649C7.29475 6.45514 6.14609 7.60357 4.99766 8.75178C4.99142 8.75802 4.98473 8.76359 4.97804 8.76961C4.92856 8.66953 4.90181 8.56387 4.8978 8.45219C4.89579 8.39869 4.89735 8.34542 4.90359 8.29236C5.00724 8.19339 5.10822 8.09152 5.20786 7.98854C5.21076 7.98653 5.2141 7.98497 5.21656 7.98252C5.30171 7.89759 5.38664 7.81266 5.47157 7.72773C5.47602 7.72327 5.48048 7.71904 5.48115 7.71213L5.48137 7.71257Z" fill="#015387"/>
<path d="M5.48123 7.71242C5.48056 7.71911 5.4761 7.72356 5.47164 7.72802C5.38672 7.81295 5.30156 7.89788 5.21664 7.98281C5.21418 7.98526 5.21084 7.98682 5.20794 7.98883C5.16358 7.94536 5.119 7.90189 5.07464 7.85842C5.07487 7.85218 5.07219 7.84862 5.0655 7.84928C5.05971 7.8426 5.05413 7.83569 5.04789 7.82945C4.7882 7.56976 4.52829 7.31029 4.26927 7.05015C4.25277 7.03366 4.24519 7.03366 4.2287 7.05015C3.27041 8.00911 2.31167 8.96762 1.35339 9.92636C1.33823 9.94152 1.32374 9.94776 1.30234 9.94753C1.13917 9.94664 0.975999 9.94709 0.813052 9.94709H0.78764L0.782959 9.93996C0.790538 9.93416 0.798786 9.92926 0.80525 9.92257C1.94677 8.78149 3.08829 7.64019 4.22959 6.49867C4.24185 6.48641 4.24898 6.47861 4.26615 6.49578C4.66895 6.89969 5.07241 7.30293 5.47588 7.70618C5.47789 7.70818 5.47945 7.71019 5.48123 7.71242Z" fill="#123C63"/>
<path d="M5.06541 7.84974C5.0721 7.84907 5.07477 7.85242 5.07455 7.85888C4.98739 7.99173 4.92765 8.13551 4.90358 8.29311C4.89734 8.34616 4.896 8.39944 4.89778 8.45293C4.90179 8.56439 4.92854 8.67027 4.97803 8.77036C5.01169 8.84882 5.05984 8.91815 5.114 8.98324C5.25243 9.14908 5.42429 9.27347 5.61132 9.37823C5.90266 9.54163 6.21496 9.65241 6.53483 9.74381C6.82417 9.82651 7.11774 9.88892 7.41376 9.94153C7.41689 9.9422 7.42001 9.94309 7.4229 9.94755C7.41332 9.94755 7.40373 9.94755 7.39415 9.94755C6.47977 9.94755 5.5654 9.94755 4.65102 9.94799C4.63007 9.94799 4.61691 9.94108 4.60332 9.92592C4.47581 9.78393 4.38353 9.6221 4.32669 9.43998C4.32535 9.43597 4.3229 9.43218 4.32089 9.42839C4.31175 9.3769 4.29704 9.32674 4.29035 9.2748C4.27943 9.1872 4.27943 9.0996 4.28589 9.01155C4.28857 8.97521 4.29949 8.93999 4.29815 8.90344C4.29815 8.90344 4.29793 8.90388 4.29793 8.90366C4.29971 8.90187 4.30172 8.89987 4.3035 8.89809C4.36101 8.63215 4.49833 8.40924 4.67532 8.20773C4.78789 8.07956 4.91361 7.96543 5.04691 7.8591C5.05226 7.85487 5.05694 7.84863 5.06519 7.84974H5.06541Z" fill="#939598"/>
<path d="M10.2386 6.49813C10.2287 6.49746 10.2227 6.49099 10.2165 6.48475C10.1414 6.40963 10.0662 6.33451 9.99113 6.25939C9.98622 6.25449 9.98065 6.24981 9.97998 6.242C10.1362 6.06635 10.2925 5.8907 10.449 5.71504C10.7334 5.39584 11.0178 5.07685 11.3018 4.7572C11.3163 4.74093 11.3226 4.73892 11.3384 4.75653C11.8105 5.28661 12.2909 5.80911 12.767 6.3354C12.9253 6.51039 13.0842 6.68493 13.2427 6.85969C13.2481 6.86548 13.2532 6.87172 13.2588 6.87796C13.251 6.88621 13.2416 6.88198 13.2336 6.88198C13.0882 6.8822 12.9429 6.88198 12.7978 6.88265C12.7791 6.88265 12.767 6.87707 12.7545 6.86325C12.4052 6.47918 12.0555 6.09533 11.706 5.71148C11.5854 5.57907 11.465 5.44688 11.3446 5.31448C11.3368 5.306 11.329 5.29776 11.3203 5.28862C11.2258 5.39472 11.1322 5.49971 11.0386 5.6047C10.7762 5.89917 10.5136 6.19385 10.251 6.48832C10.2477 6.49211 10.2428 6.49478 10.2388 6.4979L10.2386 6.49813Z" fill="#123C63"/>
<path d="M14.6718 8.52435V8.48935C14.6718 8.04554 14.672 7.60173 14.6711 7.15791C14.6711 7.12894 14.6796 7.12314 14.7063 7.12425C14.7563 7.12648 14.8062 7.12604 14.8561 7.12425C14.8789 7.12336 14.886 7.12849 14.8858 7.15301C14.8847 7.41582 14.8851 7.67885 14.8851 7.94166C14.8851 8.23479 14.8849 8.52814 14.8858 8.82127C14.8858 8.84467 14.8807 8.85114 14.8568 8.85025C14.8033 8.84824 14.7498 8.84913 14.6963 8.85002C14.68 8.85025 14.6684 8.84623 14.6573 8.83353C14.4041 8.54642 14.1502 8.25998 13.8965 7.9731C13.7543 7.81238 13.6123 7.65166 13.4701 7.49094C13.4674 7.48782 13.4645 7.48492 13.4578 7.47779V7.51056C13.4578 7.94724 13.4576 8.38392 13.4585 8.8206C13.4585 8.84556 13.4518 8.85114 13.4282 8.85025C13.3747 8.84846 13.3212 8.84846 13.2677 8.85025C13.247 8.85091 13.2434 8.84467 13.2434 8.82528C13.2441 8.45547 13.2438 8.08566 13.2438 7.71563C13.2438 7.52661 13.2443 7.3378 13.2432 7.14877C13.2432 7.12804 13.2487 7.12381 13.2684 7.12403C13.329 7.12537 13.3896 7.12492 13.4502 7.12403C13.4641 7.12403 13.473 7.12849 13.4819 7.13897C13.8544 7.57275 14.2269 8.00631 14.5996 8.43987C14.6223 8.46617 14.6448 8.49248 14.672 8.52391L14.6718 8.52435Z" fill="#010101"/>
<path d="M11.2549 8.42868C11.2957 8.47504 11.3338 8.52074 11.3748 8.56399C11.392 8.58226 11.3879 8.59296 11.3734 8.60901C11.3039 8.68659 11.2208 8.74454 11.1265 8.78779C10.9392 8.87383 10.7417 8.89902 10.538 8.88431C10.3708 8.87227 10.2119 8.83059 10.0665 8.74499C9.82712 8.60389 9.69249 8.39324 9.6586 8.11861C9.63698 7.94519 9.65303 7.77533 9.72347 7.61372C9.81732 7.39817 9.98071 7.25439 10.1994 7.17749C10.5054 7.06982 10.8146 7.06246 11.1218 7.17593C11.223 7.21337 11.3142 7.26799 11.3855 7.35158C11.3989 7.36718 11.4004 7.37744 11.3862 7.39371C11.348 7.43718 11.3119 7.48265 11.2749 7.52701C11.2702 7.53258 11.2669 7.54506 11.256 7.53102C11.1581 7.40463 11.0219 7.34578 10.8701 7.31859C10.674 7.28359 10.4798 7.29228 10.2917 7.36317C10.0322 7.46103 9.87728 7.68505 9.8726 7.96235C9.8697 8.13132 9.90826 8.28713 10.0166 8.42043C10.1162 8.54326 10.2471 8.61704 10.3991 8.65315C10.6062 8.70219 10.8106 8.69439 11.0094 8.61481C11.1028 8.57736 11.182 8.51963 11.2442 8.43982C11.2468 8.43648 11.2502 8.43336 11.2549 8.42846V8.42868Z" fill="#010101"/>
<path d="M6.72485 8.85052C6.78103 8.73795 6.83519 8.62917 6.88936 8.52039C7.10648 8.0846 7.32337 7.64903 7.54048 7.21324C7.55475 7.18471 7.56277 7.14682 7.58573 7.13054C7.61003 7.11338 7.64948 7.12809 7.68203 7.12519C7.70677 7.12297 7.71859 7.1321 7.72973 7.15484C7.87172 7.4473 8.01528 7.73887 8.15816 8.03065C8.28968 8.29948 8.42097 8.56831 8.55249 8.83737C8.55405 8.84049 8.55539 8.84338 8.55873 8.85052C8.50479 8.85052 8.45374 8.85052 8.4027 8.85052C8.37439 8.85052 8.33984 8.85921 8.31933 8.84628C8.29882 8.83335 8.29191 8.79836 8.27965 8.77272C8.07167 8.33582 7.86392 7.89869 7.65461 7.45844C7.63031 7.50749 7.60691 7.55407 7.58417 7.60111C7.39559 7.98741 7.20723 8.37371 7.01887 8.76002C7.00951 8.77919 6.99747 8.79746 6.99123 8.81753C6.98254 8.84561 6.96626 8.8523 6.9384 8.85141C6.86885 8.84918 6.7993 8.85074 6.72508 8.85074L6.72485 8.85052Z" fill="#010101"/>
<path d="M11.3469 8.85076C11.4031 8.73796 11.4574 8.62918 11.5116 8.5204C11.7289 8.08395 11.9463 7.64749 12.1638 7.21081C12.1777 7.18294 12.1855 7.14616 12.208 7.13056C12.2318 7.11406 12.2702 7.12878 12.3016 7.12521C12.3292 7.12209 12.3415 7.13346 12.3531 7.15753C12.4938 7.44754 12.636 7.73687 12.7777 8.02643C12.9097 8.29593 13.0417 8.56565 13.1734 8.83537C13.1752 8.83916 13.1767 8.84318 13.1796 8.85053C13.1154 8.85053 13.0535 8.84697 12.992 8.85187C12.9487 8.85521 12.9315 8.83783 12.9144 8.80149C12.7031 8.35433 12.4902 7.90807 12.2762 7.45868C12.2523 7.50683 12.2294 7.55275 12.2069 7.59889C12.006 8.01083 11.8052 8.42277 11.6046 8.83471C11.5994 8.84518 11.5943 8.8512 11.5809 8.85098C11.5043 8.85031 11.4276 8.85053 11.3464 8.85053L11.3469 8.85076Z" fill="#010101"/>
<path d="M9.71949 8.84966H9.68761C9.33474 8.84966 8.98188 8.84966 8.62901 8.85011C8.60694 8.85011 8.59937 8.84677 8.59937 8.8218C8.60026 8.26586 8.60026 7.70992 8.59937 7.15399C8.59937 7.1317 8.60293 7.123 8.6279 7.12412C8.68206 7.12635 8.73668 7.1259 8.79084 7.12412C8.81247 7.12345 8.81893 7.12835 8.81893 7.15131C8.81782 7.33833 8.81826 7.52558 8.81826 7.7126C8.81826 8.01464 8.81871 8.31669 8.81759 8.61873C8.81759 8.64325 8.82473 8.64681 8.84702 8.64681C9.07238 8.64592 9.29796 8.64659 9.52333 8.64592C9.54049 8.64592 9.55052 8.6506 9.56011 8.66509C9.60424 8.7313 9.6564 8.79081 9.71926 8.84966H9.71949Z" fill="#010101"/>
<path d="M4.29893 8.90283C4.30027 8.93939 4.28935 8.97461 4.28667 9.01094C4.27998 9.09899 4.27998 9.18637 4.29113 9.2742C4.29759 9.32614 4.31253 9.37629 4.32167 9.42778C4.15226 9.59742 3.98284 9.76683 3.81366 9.93647C3.80697 9.94315 3.8005 9.94716 3.7907 9.94716C3.61348 9.94694 3.43627 9.94716 3.25928 9.94716C3.25683 9.9378 3.26418 9.93535 3.26797 9.93156C3.60746 9.59185 3.94718 9.25235 4.28689 8.91286C4.29046 8.9093 4.29514 8.9064 4.29915 8.90306L4.29893 8.90283Z" fill="#015387"/>
<path d="M6.39326 9.35114C6.39326 9.27446 6.3937 9.19778 6.39281 9.12132C6.39281 9.10483 6.39705 9.10037 6.41354 9.10059C6.49201 9.10149 6.57047 9.09993 6.64871 9.10126C6.77109 9.10349 6.85624 9.16546 6.88522 9.27134C6.91776 9.38926 6.87742 9.50451 6.78179 9.56447C6.73944 9.591 6.6924 9.60415 6.64247 9.60459C6.56668 9.60548 6.49089 9.60415 6.41533 9.60526C6.39549 9.60548 6.39237 9.5988 6.39259 9.58096C6.39348 9.50428 6.39303 9.4276 6.39303 9.35114H6.39326ZM6.43985 9.35337C6.43985 9.41579 6.44051 9.47798 6.4394 9.5404C6.43895 9.55845 6.44475 9.56246 6.46191 9.56224C6.52076 9.56113 6.57939 9.56224 6.63824 9.56157C6.67702 9.56113 6.71402 9.55154 6.74791 9.53259C6.82771 9.48868 6.86449 9.39684 6.84242 9.29787C6.82214 9.2067 6.75593 9.14986 6.65852 9.14518C6.59187 9.14206 6.525 9.14451 6.45812 9.14339C6.44185 9.14317 6.4394 9.14941 6.43962 9.16368C6.44029 9.22698 6.43985 9.29007 6.43985 9.35337Z" fill="#080808"/>
<path d="M7.51828 9.17388C7.51828 9.31364 7.51805 9.44628 7.51872 9.57913C7.51872 9.59741 7.51671 9.60543 7.49509 9.60543C7.47302 9.60543 7.47146 9.59696 7.47146 9.57913C7.47213 9.43112 7.47146 9.28333 7.47213 9.13532C7.47213 9.12417 7.46389 9.10522 7.47793 9.10255C7.49598 9.09898 7.51716 9.09363 7.5341 9.11369C7.59674 9.1877 7.66094 9.26059 7.72447 9.33393C7.78109 9.39902 7.8377 9.46433 7.89499 9.53009C7.90324 9.52229 7.89923 9.51293 7.89923 9.50512C7.89945 9.37851 7.8999 9.25212 7.899 9.12551C7.899 9.10634 7.90235 9.09987 7.9233 9.09965C7.94515 9.09965 7.9447 9.10968 7.9447 9.12551C7.94426 9.2753 7.9447 9.42488 7.94426 9.57467C7.94426 9.58448 7.9505 9.60053 7.93868 9.60276C7.92286 9.60566 7.90458 9.61101 7.88964 9.59384C7.82723 9.52184 7.7637 9.45096 7.70039 9.37963C7.6411 9.31253 7.58158 9.24566 7.51828 9.17388Z" fill="#080808"/>
<path d="M11.1914 9.61631C11.0958 9.61586 11.0118 9.58755 10.9538 9.50753C10.8404 9.35104 10.9355 9.12769 11.1281 9.0967C11.2276 9.08065 11.3212 9.09537 11.3967 9.1667C11.4754 9.2407 11.4948 9.33433 11.4663 9.4362C11.4382 9.5365 11.364 9.58822 11.2659 9.60984C11.2414 9.61519 11.2166 9.6172 11.1914 9.61631ZM11.203 9.57418C11.2128 9.57351 11.2227 9.57284 11.2322 9.57195C11.3776 9.55724 11.465 9.42394 11.4179 9.28573C11.3852 9.18943 11.3112 9.14374 11.214 9.13616C11.0343 9.12189 10.9309 9.25519 10.9585 9.40454C10.9779 9.50931 11.0824 9.58242 11.203 9.57418Z" fill="#080808"/>
<path d="M10.5487 9.6157C10.4431 9.61392 10.3521 9.58048 10.2971 9.48419C10.2226 9.35401 10.2696 9.13244 10.4883 9.09566C10.5817 9.08005 10.6704 9.09432 10.7442 9.1574C10.828 9.22918 10.8521 9.3228 10.8258 9.42779C10.7997 9.53256 10.7244 9.58628 10.6232 9.60902C10.5987 9.61459 10.5739 9.61593 10.5487 9.6157ZM10.5523 9.57424C10.5619 9.57357 10.5753 9.57335 10.5886 9.57157C10.6702 9.5602 10.7375 9.5252 10.7699 9.44562C10.8028 9.36471 10.7941 9.28513 10.7378 9.21714C10.6771 9.14425 10.5949 9.12575 10.5039 9.13801C10.3675 9.15651 10.2823 9.2858 10.3198 9.41821C10.347 9.5145 10.4344 9.57402 10.5525 9.57402L10.5523 9.57424Z" fill="#080808"/>
<path d="M12.8629 9.40873C12.926 9.47471 12.9861 9.53757 13.0486 9.60289C13.0169 9.60667 12.9919 9.60824 12.969 9.58082C12.9253 9.52932 12.8769 9.48185 12.831 9.43214C12.8221 9.42255 12.8136 9.41698 12.7993 9.4172C12.7414 9.41809 12.6834 9.41832 12.6257 9.4172C12.6081 9.41676 12.6056 9.42277 12.6059 9.43838C12.6067 9.48831 12.6054 9.53824 12.6067 9.58795C12.6072 9.60601 12.5981 9.60645 12.5858 9.60467C12.5749 9.60311 12.5584 9.61292 12.5586 9.5884C12.5593 9.43169 12.5593 9.27498 12.5586 9.11806C12.5586 9.1 12.5675 9.10067 12.58 9.10067C12.6665 9.10089 12.7527 9.10022 12.8392 9.10089C12.9306 9.10178 12.9857 9.14726 12.9959 9.2284C13.0073 9.31868 12.9645 9.38198 12.8765 9.40561C12.8731 9.4065 12.8698 9.40695 12.8633 9.40828L12.8629 9.40873ZM12.7338 9.14414C12.6964 9.14414 12.6589 9.14436 12.6217 9.14391C12.6108 9.14391 12.6061 9.14614 12.6061 9.1584C12.6065 9.22706 12.6063 9.29549 12.6061 9.36415C12.6061 9.37262 12.6061 9.37975 12.6181 9.37953C12.6955 9.3773 12.773 9.3851 12.8502 9.37529C12.913 9.36727 12.9558 9.31511 12.9525 9.25537C12.9487 9.18649 12.9083 9.14703 12.8377 9.14458C12.8029 9.14347 12.7681 9.14458 12.7336 9.14458L12.7338 9.14414Z" fill="#080808"/>
<path d="M11.5673 9.35316C11.5673 9.27648 11.5678 9.20002 11.5671 9.12334C11.5671 9.10752 11.5686 9.10016 11.5878 9.10061C11.6672 9.10194 11.7463 9.10127 11.8257 9.10105C11.8455 9.10105 11.8647 9.10373 11.8836 9.10863C11.9574 9.12735 11.9949 9.18865 11.9882 9.27804C11.981 9.37412 11.9291 9.42516 11.8324 9.42895C11.7675 9.4314 11.7024 9.43118 11.6373 9.43073C11.6201 9.43073 11.6146 9.43497 11.615 9.45258C11.6164 9.49716 11.6139 9.54174 11.6161 9.5861C11.6172 9.60929 11.6034 9.60438 11.5907 9.60483C11.5771 9.60527 11.566 9.6075 11.5664 9.58566C11.568 9.50808 11.5671 9.43073 11.5671 9.35316H11.5673ZM11.6157 9.26623C11.6157 9.30189 11.6157 9.33734 11.6157 9.373C11.6157 9.38236 11.6148 9.39061 11.6288 9.39017C11.7017 9.38794 11.7748 9.39529 11.8473 9.38526C11.8861 9.37991 11.9175 9.36141 11.9338 9.32307C11.9743 9.22744 11.9226 9.14586 11.8194 9.14452C11.7581 9.14363 11.6966 9.14519 11.6353 9.14385C11.6179 9.1434 11.6148 9.14942 11.6152 9.16503C11.6164 9.19869 11.6157 9.23257 11.6157 9.26645V9.26623Z" fill="#080808"/>
<path d="M12.0705 9.35226C12.0705 9.27558 12.0712 9.19912 12.0701 9.12244C12.0699 9.10483 12.0748 9.10037 12.0921 9.10059C12.2089 9.10149 12.3255 9.10126 12.4423 9.10059C12.4591 9.10059 12.4651 9.10371 12.4655 9.12222C12.466 9.14317 12.455 9.14228 12.4406 9.14228C12.3407 9.14206 12.241 9.14272 12.1412 9.14161C12.1202 9.14139 12.1138 9.14696 12.1147 9.16814C12.1164 9.21183 12.1167 9.25552 12.1147 9.29898C12.1135 9.32217 12.122 9.3264 12.1432 9.32618C12.2306 9.32506 12.3177 9.32573 12.4051 9.32573C12.4192 9.32573 12.4319 9.32239 12.4319 9.34579C12.4319 9.36875 12.4187 9.36407 12.4062 9.36407C12.3188 9.36407 12.2315 9.36519 12.1443 9.3634C12.1187 9.36296 12.1138 9.37121 12.1147 9.39439C12.1164 9.44254 12.116 9.49069 12.1147 9.53861C12.1142 9.55711 12.1187 9.56246 12.1378 9.56246C12.2422 9.56157 12.3463 9.56246 12.4506 9.56157C12.4669 9.56157 12.4742 9.56402 12.4733 9.58275C12.4727 9.5988 12.4706 9.60548 12.4519 9.60526C12.3315 9.60437 12.2114 9.60415 12.091 9.60526C12.0716 9.60526 12.0701 9.59791 12.0703 9.5823C12.071 9.50562 12.0705 9.42916 12.0705 9.35248V9.35226Z" fill="#010101"/>
<path d="M6.98286 9.3527C6.98286 9.27602 6.9833 9.19956 6.98241 9.12288C6.98241 9.10594 6.98598 9.10037 7.00403 9.10059C7.12084 9.10148 7.23742 9.10126 7.35423 9.10059C7.37005 9.10059 7.37763 9.1026 7.37785 9.12177C7.37785 9.14205 7.36827 9.14228 7.35333 9.14228C7.25258 9.14183 7.15205 9.1425 7.05129 9.14161C7.03324 9.14161 7.02655 9.14562 7.02699 9.16501C7.02833 9.21138 7.02833 9.25774 7.02699 9.30389C7.02655 9.32194 7.03257 9.32595 7.04973 9.32595C7.13979 9.32506 7.22962 9.32573 7.31967 9.32551C7.33394 9.32551 7.34375 9.32439 7.34397 9.34535C7.34419 9.36808 7.33171 9.36407 7.31878 9.36407C7.22873 9.36407 7.13867 9.36452 7.04884 9.36363C7.03101 9.36363 7.02655 9.36875 7.02699 9.38592C7.02811 9.43763 7.02833 9.48935 7.02699 9.54084C7.02655 9.55979 7.03346 9.56224 7.04973 9.56224C7.15405 9.56157 7.25815 9.56224 7.36247 9.56157C7.37808 9.56157 7.38588 9.56291 7.38566 9.5823C7.38566 9.60147 7.37986 9.60526 7.3618 9.60526C7.24322 9.60437 7.12485 9.60415 7.00626 9.60526C6.98486 9.60548 6.98197 9.59857 6.98219 9.57985C6.9833 9.50406 6.98264 9.42849 6.98264 9.3527H6.98286Z" fill="#010101"/>
<path d="M13.657 9.60229C13.62 9.61187 13.5982 9.60162 13.5844 9.56707C13.5708 9.53363 13.5498 9.50309 13.5331 9.47077C13.5275 9.46007 13.5213 9.45561 13.5086 9.45583C13.4114 9.4565 13.3142 9.4565 13.217 9.45583C13.2045 9.45583 13.1978 9.46007 13.1925 9.47099C13.1758 9.50421 13.1579 9.5372 13.1406 9.57019C13.1267 9.59604 13.1034 9.60674 13.0706 9.60229C13.1035 9.54076 13.1363 9.47991 13.1689 9.41905C13.2228 9.31897 13.2767 9.21888 13.3302 9.11835C13.3376 9.10453 13.3465 9.09962 13.3617 9.10074C13.3753 9.10163 13.3855 9.10118 13.394 9.11657C13.4794 9.27528 13.5661 9.43354 13.6524 9.59181C13.6539 9.59471 13.6552 9.59783 13.6575 9.60229H13.657ZM13.5066 9.41794C13.458 9.32855 13.4112 9.24251 13.3623 9.1529C13.3144 9.24206 13.2678 9.329 13.2201 9.41794H13.5063H13.5066Z" fill="#080808"/>
<path d="M8.39524 9.6019C8.45833 9.48487 8.52052 9.36941 8.58271 9.25394C8.60745 9.2078 8.6322 9.16165 8.65716 9.11573C8.66898 9.09411 8.70553 9.09344 8.71712 9.11462C8.80428 9.27422 8.89144 9.43405 8.97837 9.59388C8.97949 9.59611 8.97994 9.59878 8.9806 9.60123C8.93491 9.61059 8.93379 9.61015 8.91262 9.57159C8.89478 9.53882 8.87651 9.5065 8.85934 9.47328C8.85288 9.4608 8.84574 9.45545 8.83081 9.45567C8.73563 9.45656 8.64022 9.45656 8.54504 9.45567C8.53055 9.45567 8.52275 9.45991 8.51628 9.47284C8.5009 9.50382 8.48151 9.53302 8.46858 9.5649C8.45476 9.59945 8.43403 9.61372 8.39502 9.60212L8.39524 9.6019ZM8.83148 9.41778C8.78266 9.32817 8.73585 9.2419 8.68725 9.15296C8.63933 9.24235 8.59274 9.32906 8.54526 9.41778H8.83148Z" fill="#080808"/>
<path d="M10.1797 9.49509C10.203 9.51857 10.2021 9.54027 10.177 9.56018C10.0678 9.64645 9.86068 9.63196 9.77174 9.53009C9.69974 9.44761 9.68971 9.35176 9.72516 9.25234C9.75948 9.15605 9.83817 9.11213 9.93469 9.09675C10.0118 9.08449 10.0874 9.08962 10.158 9.12751C10.1739 9.13598 10.1879 9.14668 10.2011 9.15894C10.2104 9.16786 10.212 9.17477 10.2029 9.18569C10.1904 9.20063 10.1848 9.20888 10.1645 9.18926C10.109 9.13598 10.0375 9.13019 9.96478 9.13621C9.92912 9.1391 9.89479 9.1478 9.86269 9.16474C9.78311 9.20687 9.74254 9.29247 9.75659 9.38832C9.77018 9.4806 9.83594 9.54881 9.93068 9.56642C9.99889 9.57913 10.0653 9.57445 10.1275 9.5399C10.148 9.52853 10.1641 9.51203 10.1797 9.49487V9.49509Z" fill="#080808"/>
<path d="M14.7509 9.10212C14.6945 9.21759 14.6392 9.3306 14.5837 9.44384C14.5599 9.49243 14.5356 9.5408 14.5122 9.58962C14.5075 9.59921 14.5035 9.60545 14.491 9.60523C14.4798 9.605 14.4736 9.60166 14.4685 9.59163C14.3884 9.43113 14.308 9.27086 14.2277 9.11037C14.2271 9.10881 14.2273 9.10702 14.2271 9.10524C14.2687 9.09387 14.2736 9.09588 14.2919 9.13266C14.3546 9.25927 14.4172 9.38566 14.4798 9.51227C14.483 9.51851 14.4867 9.52431 14.4919 9.53367C14.5246 9.46568 14.5561 9.40059 14.5875 9.3355C14.6191 9.26997 14.6506 9.20443 14.682 9.13868C14.6946 9.11237 14.7177 9.10026 14.7511 9.10234L14.7509 9.10212Z" fill="#080808"/>
<path d="M8.21465 9.37499C8.21465 9.30633 8.21353 9.23768 8.21531 9.16924C8.21576 9.14717 8.2084 9.14338 8.18857 9.14383C8.13596 9.14517 8.08335 9.14338 8.03097 9.14472C8.01313 9.14517 8.01024 9.13848 8.01113 9.1231C8.0118 9.10995 8.01001 9.10059 8.02963 9.10059C8.16783 9.1017 8.30582 9.10148 8.44402 9.10059C8.46163 9.10059 8.46453 9.1066 8.46408 9.12199C8.46364 9.13625 8.46297 9.14495 8.44447 9.1445C8.39275 9.14316 8.34104 9.14561 8.28954 9.14338C8.26369 9.14227 8.2599 9.15141 8.2599 9.17437C8.26101 9.3099 8.2599 9.4452 8.26101 9.58073C8.26101 9.60102 8.25566 9.60548 8.23605 9.60592C8.21465 9.60637 8.21442 9.59701 8.21442 9.58073C8.21509 9.51208 8.21465 9.44342 8.21465 9.37499Z" fill="#080808"/>
<path d="M9.04609 9.35031C9.04609 9.27385 9.04698 9.19717 9.04542 9.12071C9.04498 9.09976 9.05501 9.10042 9.0695 9.10065C9.08354 9.10065 9.09357 9.09931 9.09335 9.12049C9.09224 9.25758 9.09335 9.39467 9.09223 9.53175C9.09223 9.55471 9.09602 9.56296 9.12166 9.56252C9.21862 9.56073 9.31581 9.56207 9.41278 9.56162C9.42838 9.56162 9.43619 9.56319 9.43596 9.58236C9.43596 9.6013 9.43039 9.60532 9.41211 9.60532C9.2982 9.60442 9.18407 9.6042 9.07017 9.60532C9.04921 9.60554 9.04542 9.59952 9.04565 9.58013C9.04676 9.50367 9.04609 9.42699 9.04609 9.35053V9.35031Z" fill="#080808"/>
<path d="M13.8375 9.377C13.8375 9.44566 13.8366 9.51431 13.8382 9.58275C13.8386 9.6037 13.8299 9.60415 13.8136 9.60504C13.7942 9.60615 13.7927 9.59768 13.7927 9.58208C13.7931 9.4441 13.7927 9.30589 13.7936 9.16791C13.7936 9.14741 13.788 9.14272 13.7684 9.14317C13.7158 9.14451 13.6632 9.14272 13.6108 9.14428C13.5914 9.14473 13.5898 9.13693 13.5894 9.1211C13.5889 9.10461 13.5936 9.10037 13.6101 9.10059C13.7474 9.10126 13.8845 9.10149 14.0218 9.10059C14.0397 9.10059 14.0419 9.10706 14.0417 9.12199C14.0414 9.13626 14.041 9.14473 14.0221 9.14428C13.9703 9.14295 13.9186 9.1454 13.8671 9.14317C13.8413 9.14206 13.8368 9.15119 13.8375 9.17438C13.839 9.24214 13.8379 9.30968 13.8379 9.37745L13.8375 9.377Z" fill="#010101"/>
<path d="M14.1125 9.35356C14.1125 9.27621 14.1134 9.19864 14.1121 9.12129C14.1116 9.10123 14.1203 9.09989 14.1355 9.10078C14.1489 9.10145 14.16 9.09789 14.1598 9.12018C14.1587 9.27488 14.1587 9.4298 14.1598 9.5845C14.1598 9.60389 14.1522 9.60501 14.1368 9.60545C14.1201 9.6059 14.1116 9.60389 14.1121 9.58316C14.1134 9.5067 14.1125 9.43025 14.1125 9.35356Z" fill="#080808"/>
<g clip-path="url(#clip2_8587_13652)">
<path d="M15.2173 9.60481C15.0907 9.60481 14.964 9.60436 14.8377 9.60525C14.8187 9.60525 14.8147 9.60013 14.8147 9.58185C14.8156 9.42849 14.8156 9.27535 14.8147 9.12199C14.8147 9.10371 14.8203 9.10059 14.837 9.10059C14.9547 9.10125 15.0724 9.10103 15.1899 9.10059C15.2043 9.10059 15.2124 9.10148 15.2119 9.11998C15.2115 9.13737 15.207 9.14249 15.1894 9.14249C15.0887 9.14182 14.9879 9.14272 14.8874 9.1416C14.8655 9.14138 14.8606 9.14829 14.8613 9.16857C14.8628 9.21405 14.8624 9.25952 14.8613 9.30499C14.8608 9.32149 14.8662 9.32595 14.8825 9.32595C14.9716 9.32528 15.0608 9.32572 15.15 9.3255C15.164 9.3255 15.1765 9.32216 15.1765 9.34556C15.1765 9.36852 15.1638 9.36407 15.1511 9.36407C15.0619 9.36407 14.9727 9.36451 14.8836 9.36384C14.8671 9.36384 14.8606 9.36674 14.8611 9.38524C14.8624 9.43696 14.8622 9.48867 14.8611 9.54039C14.8606 9.55755 14.8651 9.56268 14.8827 9.56246C14.9941 9.56156 15.1056 9.56201 15.2168 9.56201V9.60481H15.2173Z" fill="#080808"/>
<path d="M5.48137 7.71257C5.49386 7.71012 5.49988 7.6992 5.5079 7.69117C6.4867 6.71282 7.46549 5.73425 8.44362 4.75501C8.46346 4.73517 8.47238 4.73784 8.49043 4.7559C8.97838 5.24474 9.467 5.73291 9.9554 6.22131C9.96275 6.22866 9.96833 6.23869 9.97969 6.24115C9.98014 6.24895 9.98571 6.25363 9.99084 6.25853C10.066 6.33365 10.1411 6.40878 10.2162 6.4839C10.2224 6.49014 10.2285 6.49682 10.2383 6.49727C10.2378 6.50908 10.2481 6.51377 10.2545 6.52023C10.3426 6.60873 10.4311 6.69677 10.5191 6.78527C10.5256 6.79196 10.535 6.79686 10.5372 6.80823C10.4886 6.81469 10.4404 6.82049 10.3923 6.82718C10.2969 6.84077 10.2037 6.86418 10.1134 6.89762C10.0945 6.90453 10.0836 6.90096 10.0697 6.88714C9.54324 6.35996 9.01606 5.83322 8.48954 5.30559C8.4697 5.28576 8.46101 5.28821 8.44273 5.30649C7.29475 6.45514 6.14609 7.60357 4.99766 8.75178C4.99142 8.75802 4.98473 8.76359 4.97804 8.76961C4.92856 8.66953 4.90181 8.56387 4.8978 8.45219C4.89579 8.39869 4.89735 8.34542 4.90359 8.29236C5.00724 8.19339 5.10822 8.09152 5.20786 7.98854C5.21076 7.98653 5.2141 7.98497 5.21656 7.98252C5.30171 7.89759 5.38664 7.81266 5.47157 7.72773C5.47602 7.72327 5.48048 7.71904 5.48115 7.71213L5.48137 7.71257Z" fill="#015387"/>
<path d="M5.48123 7.71242C5.48056 7.71911 5.4761 7.72356 5.47164 7.72802C5.38672 7.81295 5.30156 7.89788 5.21664 7.98281C5.21418 7.98526 5.21084 7.98682 5.20794 7.98883C5.16358 7.94536 5.119 7.90189 5.07464 7.85842C5.07487 7.85218 5.07219 7.84862 5.0655 7.84928C5.05971 7.8426 5.05413 7.83569 5.04789 7.82945C4.7882 7.56976 4.52829 7.31029 4.26927 7.05015C4.25277 7.03366 4.24519 7.03366 4.2287 7.05015C3.27041 8.00911 2.31167 8.96762 1.35339 9.92636C1.33823 9.94152 1.32374 9.94776 1.30234 9.94753C1.13917 9.94664 0.975999 9.94709 0.813052 9.94709H0.78764L0.782959 9.93996C0.790538 9.93416 0.798786 9.92926 0.80525 9.92257C1.94677 8.78149 3.08829 7.64019 4.22959 6.49867C4.24185 6.48641 4.24898 6.47861 4.26615 6.49578C4.66895 6.89969 5.07241 7.30293 5.47588 7.70618C5.47789 7.70818 5.47945 7.71019 5.48123 7.71242Z" fill="#123C63"/>
<path d="M5.06541 7.84974C5.0721 7.84907 5.07477 7.85242 5.07455 7.85888C4.98739 7.99173 4.92765 8.13551 4.90358 8.29311C4.89734 8.34616 4.896 8.39944 4.89778 8.45293C4.90179 8.56439 4.92854 8.67027 4.97803 8.77036C5.01169 8.84882 5.05984 8.91815 5.114 8.98324C5.25243 9.14908 5.42429 9.27347 5.61132 9.37823C5.90266 9.54163 6.21496 9.65241 6.53483 9.74381C6.82417 9.82651 7.11774 9.88892 7.41376 9.94153C7.41689 9.9422 7.42001 9.94309 7.4229 9.94755C7.41332 9.94755 7.40373 9.94755 7.39415 9.94755C6.47977 9.94755 5.5654 9.94755 4.65102 9.94799C4.63007 9.94799 4.61691 9.94108 4.60332 9.92592C4.47581 9.78393 4.38353 9.6221 4.32669 9.43998C4.32535 9.43597 4.3229 9.43218 4.32089 9.42839C4.31175 9.3769 4.29704 9.32674 4.29035 9.2748C4.27943 9.1872 4.27943 9.0996 4.28589 9.01155C4.28857 8.97521 4.29949 8.93999 4.29815 8.90344C4.29815 8.90344 4.29793 8.90388 4.29793 8.90366C4.29971 8.90187 4.30172 8.89987 4.3035 8.89809C4.36101 8.63215 4.49833 8.40924 4.67532 8.20773C4.78789 8.07956 4.91361 7.96543 5.04691 7.8591C5.05226 7.85487 5.05694 7.84863 5.06519 7.84974H5.06541Z" fill="#939598"/>
<path d="M10.2386 6.49813C10.2287 6.49746 10.2227 6.49099 10.2165 6.48475C10.1414 6.40963 10.0662 6.33451 9.99113 6.25939C9.98622 6.25449 9.98065 6.24981 9.97998 6.242C10.1362 6.06635 10.2925 5.8907 10.449 5.71504C10.7334 5.39584 11.0178 5.07685 11.3018 4.7572C11.3163 4.74093 11.3226 4.73892 11.3384 4.75653C11.8105 5.28661 12.2909 5.80911 12.767 6.3354C12.9253 6.51039 13.0842 6.68493 13.2427 6.85969C13.2481 6.86548 13.2532 6.87172 13.2588 6.87796C13.251 6.88621 13.2416 6.88198 13.2336 6.88198C13.0882 6.8822 12.9429 6.88198 12.7978 6.88265C12.7791 6.88265 12.767 6.87707 12.7545 6.86325C12.4052 6.47918 12.0555 6.09533 11.706 5.71148C11.5854 5.57907 11.465 5.44688 11.3446 5.31448C11.3368 5.306 11.329 5.29776 11.3203 5.28862C11.2258 5.39472 11.1322 5.49971 11.0386 5.6047C10.7762 5.89917 10.5136 6.19385 10.251 6.48832C10.2477 6.49211 10.2428 6.49478 10.2388 6.4979L10.2386 6.49813Z" fill="#123C63"/>
<path d="M14.6718 8.52435V8.48935C14.6718 8.04554 14.672 7.60173 14.6711 7.15791C14.6711 7.12894 14.6796 7.12314 14.7063 7.12425C14.7563 7.12648 14.8062 7.12604 14.8561 7.12425C14.8789 7.12336 14.886 7.12849 14.8858 7.15301C14.8847 7.41582 14.8851 7.67885 14.8851 7.94166C14.8851 8.23479 14.8849 8.52814 14.8858 8.82127C14.8858 8.84467 14.8807 8.85114 14.8568 8.85025C14.8033 8.84824 14.7498 8.84913 14.6963 8.85002C14.68 8.85025 14.6684 8.84623 14.6573 8.83353C14.4041 8.54642 14.1502 8.25998 13.8965 7.9731C13.7543 7.81238 13.6123 7.65166 13.4701 7.49094C13.4674 7.48782 13.4645 7.48492 13.4578 7.47779V7.51056C13.4578 7.94724 13.4576 8.38392 13.4585 8.8206C13.4585 8.84556 13.4518 8.85114 13.4282 8.85025C13.3747 8.84846 13.3212 8.84846 13.2677 8.85025C13.247 8.85091 13.2434 8.84467 13.2434 8.82528C13.2441 8.45547 13.2438 8.08566 13.2438 7.71563C13.2438 7.52661 13.2443 7.3378 13.2432 7.14877C13.2432 7.12804 13.2487 7.12381 13.2684 7.12403C13.329 7.12537 13.3896 7.12492 13.4502 7.12403C13.4641 7.12403 13.473 7.12849 13.4819 7.13897C13.8544 7.57275 14.2269 8.00631 14.5996 8.43987C14.6223 8.46617 14.6448 8.49248 14.672 8.52391L14.6718 8.52435Z" fill="#010101"/>
<path d="M11.2549 8.42868C11.2957 8.47504 11.3338 8.52074 11.3748 8.56399C11.392 8.58226 11.3879 8.59296 11.3734 8.60901C11.3039 8.68659 11.2208 8.74454 11.1265 8.78779C10.9392 8.87383 10.7417 8.89902 10.538 8.88431C10.3708 8.87227 10.2119 8.83059 10.0665 8.74499C9.82712 8.60389 9.69249 8.39324 9.6586 8.11861C9.63698 7.94519 9.65303 7.77533 9.72347 7.61372C9.81732 7.39817 9.98071 7.25439 10.1994 7.17749C10.5054 7.06982 10.8146 7.06246 11.1218 7.17593C11.223 7.21337 11.3142 7.26799 11.3855 7.35158C11.3989 7.36718 11.4004 7.37744 11.3862 7.39371C11.348 7.43718 11.3119 7.48265 11.2749 7.52701C11.2702 7.53258 11.2669 7.54506 11.256 7.53102C11.1581 7.40463 11.0219 7.34578 10.8701 7.31859C10.674 7.28359 10.4798 7.29228 10.2917 7.36317C10.0322 7.46103 9.87728 7.68505 9.8726 7.96235C9.8697 8.13132 9.90826 8.28713 10.0166 8.42043C10.1162 8.54326 10.2471 8.61704 10.3991 8.65315C10.6062 8.70219 10.8106 8.69439 11.0094 8.61481C11.1028 8.57736 11.182 8.51963 11.2442 8.43982C11.2468 8.43648 11.2502 8.43336 11.2549 8.42846V8.42868Z" fill="#010101"/>
<path d="M6.72485 8.85052C6.78103 8.73795 6.83519 8.62917 6.88936 8.52039C7.10648 8.0846 7.32337 7.64903 7.54048 7.21324C7.55475 7.18471 7.56277 7.14682 7.58573 7.13054C7.61003 7.11338 7.64948 7.12809 7.68203 7.12519C7.70677 7.12297 7.71859 7.1321 7.72973 7.15484C7.87172 7.4473 8.01528 7.73887 8.15816 8.03065C8.28968 8.29948 8.42097 8.56831 8.55249 8.83737C8.55405 8.84049 8.55539 8.84338 8.55873 8.85052C8.50479 8.85052 8.45374 8.85052 8.4027 8.85052C8.37439 8.85052 8.33984 8.85921 8.31933 8.84628C8.29882 8.83335 8.29191 8.79836 8.27965 8.77272C8.07167 8.33582 7.86392 7.89869 7.65461 7.45844C7.63031 7.50749 7.60691 7.55407 7.58417 7.60111C7.39559 7.98741 7.20723 8.37371 7.01887 8.76002C7.00951 8.77919 6.99747 8.79746 6.99123 8.81753C6.98254 8.84561 6.96626 8.8523 6.9384 8.85141C6.86885 8.84918 6.7993 8.85074 6.72508 8.85074L6.72485 8.85052Z" fill="#010101"/>
<path d="M11.3469 8.85076C11.4031 8.73796 11.4574 8.62918 11.5116 8.5204C11.7289 8.08395 11.9463 7.64749 12.1638 7.21081C12.1777 7.18294 12.1855 7.14616 12.208 7.13056C12.2318 7.11406 12.2702 7.12878 12.3016 7.12521C12.3292 7.12209 12.3415 7.13346 12.3531 7.15753C12.4938 7.44754 12.636 7.73687 12.7777 8.02643C12.9097 8.29593 13.0417 8.56565 13.1734 8.83537C13.1752 8.83916 13.1767 8.84318 13.1796 8.85053C13.1154 8.85053 13.0535 8.84697 12.992 8.85187C12.9487 8.85521 12.9315 8.83783 12.9144 8.80149C12.7031 8.35433 12.4902 7.90807 12.2762 7.45868C12.2523 7.50683 12.2294 7.55275 12.2069 7.59889C12.006 8.01083 11.8052 8.42277 11.6046 8.83471C11.5994 8.84518 11.5943 8.8512 11.5809 8.85098C11.5043 8.85031 11.4276 8.85053 11.3464 8.85053L11.3469 8.85076Z" fill="#010101"/>
<path d="M9.71949 8.84966H9.68761C9.33474 8.84966 8.98188 8.84966 8.62901 8.85011C8.60694 8.85011 8.59937 8.84677 8.59937 8.8218C8.60026 8.26586 8.60026 7.70992 8.59937 7.15399C8.59937 7.1317 8.60293 7.123 8.6279 7.12412C8.68206 7.12635 8.73668 7.1259 8.79084 7.12412C8.81247 7.12345 8.81893 7.12835 8.81893 7.15131C8.81782 7.33833 8.81826 7.52558 8.81826 7.7126C8.81826 8.01464 8.81871 8.31669 8.81759 8.61873C8.81759 8.64325 8.82473 8.64681 8.84702 8.64681C9.07238 8.64592 9.29796 8.64659 9.52333 8.64592C9.54049 8.64592 9.55052 8.6506 9.56011 8.66509C9.60424 8.7313 9.6564 8.79081 9.71926 8.84966H9.71949Z" fill="#010101"/>
<path d="M4.29893 8.90283C4.30027 8.93939 4.28935 8.97461 4.28667 9.01094C4.27998 9.09899 4.27998 9.18637 4.29113 9.2742C4.29759 9.32614 4.31253 9.37629 4.32167 9.42778C4.15226 9.59742 3.98284 9.76683 3.81366 9.93647C3.80697 9.94315 3.8005 9.94716 3.7907 9.94716C3.61348 9.94694 3.43627 9.94716 3.25928 9.94716C3.25683 9.9378 3.26418 9.93535 3.26797 9.93156C3.60746 9.59185 3.94718 9.25235 4.28689 8.91286C4.29046 8.9093 4.29514 8.9064 4.29915 8.90306L4.29893 8.90283Z" fill="#015387"/>
<path d="M6.39326 9.35114C6.39326 9.27446 6.3937 9.19778 6.39281 9.12132C6.39281 9.10483 6.39705 9.10037 6.41354 9.10059C6.49201 9.10149 6.57047 9.09993 6.64871 9.10126C6.77109 9.10349 6.85624 9.16546 6.88522 9.27134C6.91776 9.38926 6.87742 9.50451 6.78179 9.56447C6.73944 9.591 6.6924 9.60415 6.64247 9.60459C6.56668 9.60548 6.49089 9.60415 6.41533 9.60526C6.39549 9.60548 6.39237 9.5988 6.39259 9.58096C6.39348 9.50428 6.39303 9.4276 6.39303 9.35114H6.39326ZM6.43985 9.35337C6.43985 9.41579 6.44051 9.47798 6.4394 9.5404C6.43895 9.55845 6.44475 9.56246 6.46191 9.56224C6.52076 9.56113 6.57939 9.56224 6.63824 9.56157C6.67702 9.56113 6.71402 9.55154 6.74791 9.53259C6.82771 9.48868 6.86449 9.39684 6.84242 9.29787C6.82214 9.2067 6.75593 9.14986 6.65852 9.14518C6.59187 9.14206 6.525 9.14451 6.45812 9.14339C6.44185 9.14317 6.4394 9.14941 6.43962 9.16368C6.44029 9.22698 6.43985 9.29007 6.43985 9.35337Z" fill="#080808"/>
<path d="M7.51828 9.17388C7.51828 9.31364 7.51805 9.44628 7.51872 9.57913C7.51872 9.59741 7.51671 9.60543 7.49509 9.60543C7.47302 9.60543 7.47146 9.59696 7.47146 9.57913C7.47213 9.43112 7.47146 9.28333 7.47213 9.13532C7.47213 9.12417 7.46389 9.10522 7.47793 9.10255C7.49598 9.09898 7.51716 9.09363 7.5341 9.11369C7.59674 9.1877 7.66094 9.26059 7.72447 9.33393C7.78109 9.39902 7.8377 9.46433 7.89499 9.53009C7.90324 9.52229 7.89923 9.51293 7.89923 9.50512C7.89945 9.37851 7.8999 9.25212 7.899 9.12551C7.899 9.10634 7.90235 9.09987 7.9233 9.09965C7.94515 9.09965 7.9447 9.10968 7.9447 9.12551C7.94426 9.2753 7.9447 9.42488 7.94426 9.57467C7.94426 9.58448 7.9505 9.60053 7.93868 9.60276C7.92286 9.60566 7.90458 9.61101 7.88964 9.59384C7.82723 9.52184 7.7637 9.45096 7.70039 9.37963C7.6411 9.31253 7.58158 9.24566 7.51828 9.17388Z" fill="#080808"/>
<path d="M11.1914 9.61631C11.0958 9.61586 11.0118 9.58755 10.9538 9.50753C10.8404 9.35104 10.9355 9.12769 11.1281 9.0967C11.2276 9.08065 11.3212 9.09537 11.3967 9.1667C11.4754 9.2407 11.4948 9.33433 11.4663 9.4362C11.4382 9.5365 11.364 9.58822 11.2659 9.60984C11.2414 9.61519 11.2166 9.6172 11.1914 9.61631ZM11.203 9.57418C11.2128 9.57351 11.2227 9.57284 11.2322 9.57195C11.3776 9.55724 11.465 9.42394 11.4179 9.28573C11.3852 9.18943 11.3112 9.14374 11.214 9.13616C11.0343 9.12189 10.9309 9.25519 10.9585 9.40454C10.9779 9.50931 11.0824 9.58242 11.203 9.57418Z" fill="#080808"/>
<path d="M10.5487 9.6157C10.4431 9.61392 10.3521 9.58048 10.2971 9.48419C10.2226 9.35401 10.2696 9.13244 10.4883 9.09566C10.5817 9.08005 10.6704 9.09432 10.7442 9.1574C10.828 9.22918 10.8521 9.3228 10.8258 9.42779C10.7997 9.53256 10.7244 9.58628 10.6232 9.60902C10.5987 9.61459 10.5739 9.61593 10.5487 9.6157ZM10.5523 9.57424C10.5619 9.57357 10.5753 9.57335 10.5886 9.57157C10.6702 9.5602 10.7375 9.5252 10.7699 9.44562C10.8028 9.36471 10.7941 9.28513 10.7378 9.21714C10.6771 9.14425 10.5949 9.12575 10.5039 9.13801C10.3675 9.15651 10.2823 9.2858 10.3198 9.41821C10.347 9.5145 10.4344 9.57402 10.5525 9.57402L10.5523 9.57424Z" fill="#080808"/>
<path d="M12.8629 9.40873C12.926 9.47471 12.9861 9.53757 13.0486 9.60289C13.0169 9.60667 12.9919 9.60824 12.969 9.58082C12.9253 9.52932 12.8769 9.48185 12.831 9.43214C12.8221 9.42255 12.8136 9.41698 12.7993 9.4172C12.7414 9.41809 12.6834 9.41832 12.6257 9.4172C12.6081 9.41676 12.6056 9.42277 12.6059 9.43838C12.6067 9.48831 12.6054 9.53824 12.6067 9.58795C12.6072 9.60601 12.5981 9.60645 12.5858 9.60467C12.5749 9.60311 12.5584 9.61292 12.5586 9.5884C12.5593 9.43169 12.5593 9.27498 12.5586 9.11806C12.5586 9.1 12.5675 9.10067 12.58 9.10067C12.6665 9.10089 12.7527 9.10022 12.8392 9.10089C12.9306 9.10178 12.9857 9.14726 12.9959 9.2284C13.0073 9.31868 12.9645 9.38198 12.8765 9.40561C12.8731 9.4065 12.8698 9.40695 12.8633 9.40828L12.8629 9.40873ZM12.7338 9.14414C12.6964 9.14414 12.6589 9.14436 12.6217 9.14391C12.6108 9.14391 12.6061 9.14614 12.6061 9.1584C12.6065 9.22706 12.6063 9.29549 12.6061 9.36415C12.6061 9.37262 12.6061 9.37975 12.6181 9.37953C12.6955 9.3773 12.773 9.3851 12.8502 9.37529C12.913 9.36727 12.9558 9.31511 12.9525 9.25537C12.9487 9.18649 12.9083 9.14703 12.8377 9.14458C12.8029 9.14347 12.7681 9.14458 12.7336 9.14458L12.7338 9.14414Z" fill="#080808"/>
<path d="M11.5673 9.35316C11.5673 9.27648 11.5678 9.20002 11.5671 9.12334C11.5671 9.10752 11.5686 9.10016 11.5878 9.10061C11.6672 9.10194 11.7463 9.10127 11.8257 9.10105C11.8455 9.10105 11.8647 9.10373 11.8836 9.10863C11.9574 9.12735 11.9949 9.18865 11.9882 9.27804C11.981 9.37412 11.9291 9.42516 11.8324 9.42895C11.7675 9.4314 11.7024 9.43118 11.6373 9.43073C11.6201 9.43073 11.6146 9.43497 11.615 9.45258C11.6164 9.49716 11.6139 9.54174 11.6161 9.5861C11.6172 9.60929 11.6034 9.60438 11.5907 9.60483C11.5771 9.60527 11.566 9.6075 11.5664 9.58566C11.568 9.50808 11.5671 9.43073 11.5671 9.35316H11.5673ZM11.6157 9.26623C11.6157 9.30189 11.6157 9.33734 11.6157 9.373C11.6157 9.38236 11.6148 9.39061 11.6288 9.39017C11.7017 9.38794 11.7748 9.39529 11.8473 9.38526C11.8861 9.37991 11.9175 9.36141 11.9338 9.32307C11.9743 9.22744 11.9226 9.14586 11.8194 9.14452C11.7581 9.14363 11.6966 9.14519 11.6353 9.14385C11.6179 9.1434 11.6148 9.14942 11.6152 9.16503C11.6164 9.19869 11.6157 9.23257 11.6157 9.26645V9.26623Z" fill="#080808"/>
<path d="M12.0705 9.35226C12.0705 9.27558 12.0712 9.19912 12.0701 9.12244C12.0699 9.10483 12.0748 9.10037 12.0921 9.10059C12.2089 9.10149 12.3255 9.10126 12.4423 9.10059C12.4591 9.10059 12.4651 9.10371 12.4655 9.12222C12.466 9.14317 12.455 9.14228 12.4406 9.14228C12.3407 9.14206 12.241 9.14272 12.1412 9.14161C12.1202 9.14139 12.1138 9.14696 12.1147 9.16814C12.1164 9.21183 12.1167 9.25552 12.1147 9.29898C12.1135 9.32217 12.122 9.3264 12.1432 9.32618C12.2306 9.32506 12.3177 9.32573 12.4051 9.32573C12.4192 9.32573 12.4319 9.32239 12.4319 9.34579C12.4319 9.36875 12.4187 9.36407 12.4062 9.36407C12.3188 9.36407 12.2315 9.36519 12.1443 9.3634C12.1187 9.36296 12.1138 9.37121 12.1147 9.39439C12.1164 9.44254 12.116 9.49069 12.1147 9.53861C12.1142 9.55711 12.1187 9.56246 12.1378 9.56246C12.2422 9.56157 12.3463 9.56246 12.4506 9.56157C12.4669 9.56157 12.4742 9.56402 12.4733 9.58275C12.4727 9.5988 12.4706 9.60548 12.4519 9.60526C12.3315 9.60437 12.2114 9.60415 12.091 9.60526C12.0716 9.60526 12.0701 9.59791 12.0703 9.5823C12.071 9.50562 12.0705 9.42916 12.0705 9.35248V9.35226Z" fill="#010101"/>
<path d="M6.98286 9.3527C6.98286 9.27602 6.9833 9.19956 6.98241 9.12288C6.98241 9.10594 6.98598 9.10037 7.00403 9.10059C7.12084 9.10148 7.23742 9.10126 7.35423 9.10059C7.37005 9.10059 7.37763 9.1026 7.37785 9.12177C7.37785 9.14205 7.36827 9.14228 7.35333 9.14228C7.25258 9.14183 7.15205 9.1425 7.05129 9.14161C7.03324 9.14161 7.02655 9.14562 7.02699 9.16501C7.02833 9.21138 7.02833 9.25774 7.02699 9.30389C7.02655 9.32194 7.03257 9.32595 7.04973 9.32595C7.13979 9.32506 7.22962 9.32573 7.31967 9.32551C7.33394 9.32551 7.34375 9.32439 7.34397 9.34535C7.34419 9.36808 7.33171 9.36407 7.31878 9.36407C7.22873 9.36407 7.13867 9.36452 7.04884 9.36363C7.03101 9.36363 7.02655 9.36875 7.02699 9.38592C7.02811 9.43763 7.02833 9.48935 7.02699 9.54084C7.02655 9.55979 7.03346 9.56224 7.04973 9.56224C7.15405 9.56157 7.25815 9.56224 7.36247 9.56157C7.37808 9.56157 7.38588 9.56291 7.38566 9.5823C7.38566 9.60147 7.37986 9.60526 7.3618 9.60526C7.24322 9.60437 7.12485 9.60415 7.00626 9.60526C6.98486 9.60548 6.98197 9.59857 6.98219 9.57985C6.9833 9.50406 6.98264 9.42849 6.98264 9.3527H6.98286Z" fill="#010101"/>
<path d="M13.657 9.60229C13.62 9.61187 13.5982 9.60162 13.5844 9.56707C13.5708 9.53363 13.5498 9.50309 13.5331 9.47077C13.5275 9.46007 13.5213 9.45561 13.5086 9.45583C13.4114 9.4565 13.3142 9.4565 13.217 9.45583C13.2045 9.45583 13.1978 9.46007 13.1925 9.47099C13.1758 9.50421 13.1579 9.5372 13.1406 9.57019C13.1267 9.59604 13.1034 9.60674 13.0706 9.60229C13.1035 9.54076 13.1363 9.47991 13.1689 9.41905C13.2228 9.31897 13.2767 9.21888 13.3302 9.11835C13.3376 9.10453 13.3465 9.09962 13.3617 9.10074C13.3753 9.10163 13.3855 9.10118 13.394 9.11657C13.4794 9.27528 13.5661 9.43354 13.6524 9.59181C13.6539 9.59471 13.6552 9.59783 13.6575 9.60229H13.657ZM13.5066 9.41794C13.458 9.32855 13.4112 9.24251 13.3623 9.1529C13.3144 9.24206 13.2678 9.329 13.2201 9.41794H13.5063H13.5066Z" fill="#080808"/>
<path d="M8.39524 9.6019C8.45833 9.48487 8.52052 9.36941 8.58271 9.25394C8.60745 9.2078 8.6322 9.16165 8.65716 9.11573C8.66898 9.09411 8.70553 9.09344 8.71712 9.11462C8.80428 9.27422 8.89144 9.43405 8.97837 9.59388C8.97949 9.59611 8.97994 9.59878 8.9806 9.60123C8.93491 9.61059 8.93379 9.61015 8.91262 9.57159C8.89478 9.53882 8.87651 9.5065 8.85934 9.47328C8.85288 9.4608 8.84574 9.45545 8.83081 9.45567C8.73563 9.45656 8.64022 9.45656 8.54504 9.45567C8.53055 9.45567 8.52275 9.45991 8.51628 9.47284C8.5009 9.50382 8.48151 9.53302 8.46858 9.5649C8.45476 9.59945 8.43403 9.61372 8.39502 9.60212L8.39524 9.6019ZM8.83148 9.41778C8.78266 9.32817 8.73585 9.2419 8.68725 9.15296C8.63933 9.24235 8.59274 9.32906 8.54526 9.41778H8.83148Z" fill="#080808"/>
<path d="M10.1797 9.49509C10.203 9.51857 10.2021 9.54027 10.177 9.56018C10.0678 9.64645 9.86068 9.63196 9.77174 9.53009C9.69974 9.44761 9.68971 9.35176 9.72516 9.25234C9.75948 9.15605 9.83817 9.11213 9.93469 9.09675C10.0118 9.08449 10.0874 9.08962 10.158 9.12751C10.1739 9.13598 10.1879 9.14668 10.2011 9.15894C10.2104 9.16786 10.212 9.17477 10.2029 9.18569C10.1904 9.20063 10.1848 9.20888 10.1645 9.18926C10.109 9.13598 10.0375 9.13019 9.96478 9.13621C9.92912 9.1391 9.89479 9.1478 9.86269 9.16474C9.78311 9.20687 9.74254 9.29247 9.75659 9.38832C9.77018 9.4806 9.83594 9.54881 9.93068 9.56642C9.99889 9.57913 10.0653 9.57445 10.1275 9.5399C10.148 9.52853 10.1641 9.51203 10.1797 9.49487V9.49509Z" fill="#080808"/>
<path d="M14.7509 9.10212C14.6945 9.21759 14.6392 9.3306 14.5837 9.44384C14.5599 9.49243 14.5356 9.5408 14.5122 9.58962C14.5075 9.59921 14.5035 9.60545 14.491 9.60523C14.4798 9.605 14.4736 9.60166 14.4685 9.59163C14.3884 9.43113 14.308 9.27086 14.2277 9.11037C14.2271 9.10881 14.2273 9.10702 14.2271 9.10524C14.2687 9.09387 14.2736 9.09588 14.2919 9.13266C14.3546 9.25927 14.4172 9.38566 14.4798 9.51227C14.483 9.51851 14.4867 9.52431 14.4919 9.53367C14.5246 9.46568 14.5561 9.40059 14.5875 9.3355C14.6191 9.26997 14.6506 9.20443 14.682 9.13868C14.6946 9.11237 14.7177 9.10026 14.7511 9.10234L14.7509 9.10212Z" fill="#080808"/>
<path d="M8.21465 9.37499C8.21465 9.30633 8.21353 9.23768 8.21531 9.16924C8.21576 9.14717 8.2084 9.14338 8.18857 9.14383C8.13596 9.14517 8.08335 9.14338 8.03097 9.14472C8.01313 9.14517 8.01024 9.13848 8.01113 9.1231C8.0118 9.10995 8.01001 9.10059 8.02963 9.10059C8.16783 9.1017 8.30582 9.10148 8.44402 9.10059C8.46163 9.10059 8.46453 9.1066 8.46408 9.12199C8.46364 9.13625 8.46297 9.14495 8.44447 9.1445C8.39275 9.14316 8.34104 9.14561 8.28954 9.14338C8.26369 9.14227 8.2599 9.15141 8.2599 9.17437C8.26101 9.3099 8.2599 9.4452 8.26101 9.58073C8.26101 9.60102 8.25566 9.60548 8.23605 9.60592C8.21465 9.60637 8.21442 9.59701 8.21442 9.58073C8.21509 9.51208 8.21465 9.44342 8.21465 9.37499Z" fill="#080808"/>
<path d="M9.04609 9.35031C9.04609 9.27385 9.04698 9.19717 9.04542 9.12071C9.04498 9.09976 9.05501 9.10042 9.0695 9.10065C9.08354 9.10065 9.09357 9.09931 9.09335 9.12049C9.09224 9.25758 9.09335 9.39467 9.09223 9.53175C9.09223 9.55471 9.09602 9.56296 9.12166 9.56252C9.21862 9.56073 9.31581 9.56207 9.41278 9.56162C9.42838 9.56162 9.43619 9.56319 9.43596 9.58236C9.43596 9.6013 9.43039 9.60532 9.41211 9.60532C9.2982 9.60442 9.18407 9.6042 9.07017 9.60532C9.04921 9.60554 9.04542 9.59952 9.04565 9.58013C9.04676 9.50367 9.04609 9.42699 9.04609 9.35053V9.35031Z" fill="#080808"/>
<path d="M13.8375 9.377C13.8375 9.44566 13.8366 9.51431 13.8382 9.58275C13.8386 9.6037 13.8299 9.60415 13.8136 9.60504C13.7942 9.60615 13.7927 9.59768 13.7927 9.58208C13.7931 9.4441 13.7927 9.30589 13.7936 9.16791C13.7936 9.14741 13.788 9.14272 13.7684 9.14317C13.7158 9.14451 13.6632 9.14272 13.6108 9.14428C13.5914 9.14473 13.5898 9.13693 13.5894 9.1211C13.5889 9.10461 13.5936 9.10037 13.6101 9.10059C13.7474 9.10126 13.8845 9.10149 14.0218 9.10059C14.0397 9.10059 14.0419 9.10706 14.0417 9.12199C14.0414 9.13626 14.041 9.14473 14.0221 9.14428C13.9703 9.14295 13.9186 9.1454 13.8671 9.14317C13.8413 9.14206 13.8368 9.15119 13.8375 9.17438C13.839 9.24214 13.8379 9.30968 13.8379 9.37745L13.8375 9.377Z" fill="#010101"/>
<path d="M14.1125 9.35356C14.1125 9.27621 14.1134 9.19864 14.1121 9.12129C14.1116 9.10123 14.1203 9.09989 14.1355 9.10078C14.1489 9.10145 14.16 9.09789 14.1598 9.12018C14.1587 9.27488 14.1587 9.4298 14.1598 9.5845C14.1598 9.60389 14.1522 9.60501 14.1368 9.60545C14.1201 9.6059 14.1116 9.60389 14.1121 9.58316C14.1134 9.5067 14.1125 9.43025 14.1125 9.35356Z" fill="#080808"/>
</g>
</g>
</g>
<defs>
<clipPath id="clip0_8587_13652">
<rect width="14.4341" height="5.20651" fill="white" transform="translate(0.782959 4.74121)"/>
</clipPath>
<clipPath id="clip1_8587_13652">
<rect width="14.4341" height="5.20651" fill="white" transform="translate(0.782959 4.74121)"/>
</clipPath>
<clipPath id="clip2_8587_13652">
<rect width="14.4341" height="5.20651" fill="white" transform="translate(0.782959 4.74121)"/>
</clipPath>
</defs>
</svg>
