<svg width="161" height="28" viewBox="0 0 161 28" fill="none" xmlns="http://www.w3.org/2000/svg">
<g clip-path="url(#clip0_10367_23075)">
<path d="M40.0154 6.06611V4.43794H33.8438V14.4568H35.8473V10.2169H39.0495V8.62367H35.8473V6.06611H40.0154Z" fill="#002C59"/>
<path d="M42.002 4.43794V14.4568H44.0234V4.43794H42.002Z" fill="#002C59"/>
<path d="M51.6627 10.3951C52.414 10.1802 52.9865 9.82383 53.3622 9.28577C53.7557 8.76692 53.9347 8.15899 53.9347 7.5161C53.9347 6.9431 53.8094 6.42425 53.5411 5.95955C53.2549 5.49311 52.8434 5.11752 52.3067 4.85022C51.7701 4.58119 51.1082 4.43794 50.3211 4.43794H46.5645V14.4568H48.5858V10.5558H49.516L51.7343 14.4568H54.0598L51.6627 10.3951ZM50.2496 9.03597H48.5858V6.10282H50.2496C50.8041 6.10282 51.2155 6.22686 51.466 6.47842C51.7343 6.72823 51.8774 7.08635 51.8774 7.55105C51.8774 8.01575 51.7343 8.39135 51.466 8.6429C51.2155 8.91018 50.8041 9.03597 50.2496 9.03597Z" fill="#002C59"/>
<path d="M62.8958 10.037C62.5917 9.66142 62.2339 9.37666 61.8225 9.17926C61.4111 8.99931 60.8922 8.80366 60.2304 8.60626C59.7652 8.46301 59.3896 8.33898 59.1212 8.23066C58.853 8.1241 58.6383 7.98085 58.4594 7.80092C58.2805 7.62273 58.1911 7.40785 58.1911 7.14057C58.1911 6.74576 58.3162 6.45925 58.5488 6.2636C58.7813 6.0662 59.1033 5.95963 59.4969 5.95963C59.9442 5.95963 60.302 6.0662 60.5702 6.29854C60.8386 6.51342 60.9818 6.79991 61.0175 7.15805H63.2179C63.1462 6.24612 62.7884 5.54735 62.1445 5.04598C61.5005 4.54634 60.6597 4.29479 59.6401 4.29479C58.9424 4.29479 58.3341 4.42056 57.7975 4.65292C57.2608 4.88528 56.8494 5.22592 56.5452 5.65568C56.2591 6.10291 56.098 6.62175 56.098 7.21048C56.098 7.83764 56.2591 8.33902 56.5452 8.71461C56.8315 9.09021 57.1892 9.37672 57.5828 9.57237C57.9942 9.75231 58.5309 9.94796 59.175 10.1279C59.6579 10.2712 60.0336 10.3952 60.302 10.5035C60.5702 10.6101 60.8028 10.7533 60.9817 10.9507C61.1606 11.1464 61.25 11.3787 61.25 11.6827C61.25 12.0408 61.1248 12.3448 60.8565 12.5597C60.5881 12.792 60.2124 12.9003 59.7474 12.9003C59.2824 12.9003 58.9245 12.7745 58.674 12.5422C58.4057 12.3098 58.2626 11.9692 58.2268 11.5587H56.0801C56.0801 12.1841 56.259 12.7029 56.581 13.1501C56.903 13.6148 57.3502 13.9555 57.9048 14.1878C58.4593 14.4377 59.0855 14.546 59.7831 14.546C60.5345 14.546 61.1606 14.4202 61.6972 14.1337C62.2339 13.8664 62.6454 13.5083 62.9136 13.0436C63.1999 12.5771 63.3252 12.095 63.3252 11.5587C63.3252 10.9315 63.1821 10.4318 62.8958 10.037Z" fill="#002C59"/>
<path d="M65.1152 4.43794V6.06611H67.7807V14.4568H69.7842V6.06611H72.4496V4.43794H65.1152Z" fill="#002C59"/>
<path d="M85.3657 5.94033C85.0974 5.47564 84.686 5.10004 84.1493 4.85022C83.5947 4.58119 82.9328 4.43794 82.1636 4.43794H78.4785V14.4568H80.4821V10.61H82.1636C82.9866 10.61 83.6664 10.4667 84.203 10.1802C84.7396 9.89373 85.1332 9.51811 85.4015 9.03595C85.652 8.57125 85.7772 8.06988 85.7772 7.53357C85.7772 6.9431 85.6341 6.40677 85.3657 5.94033ZM83.3086 8.60619C83.0402 8.85775 82.6288 8.98179 82.0742 8.98179H80.4821V6.06611H82.0742C83.1654 6.06611 83.7021 6.56748 83.7021 7.53356C83.7021 7.99826 83.5768 8.35637 83.3086 8.60619Z" fill="#002C59"/>
<path d="M92.86 10.3951C93.6114 10.1802 94.1839 9.82383 94.5595 9.28577C94.9531 8.76692 95.1319 8.15899 95.1319 7.5161C95.1319 6.9431 95.0067 6.42425 94.7205 5.95955C94.4522 5.49311 94.0408 5.11752 93.5041 4.85022C92.9495 4.58119 92.3055 4.43794 91.5183 4.43794H87.7617V14.4568H89.7832V10.5558H90.7134L92.9316 14.4568H95.2572L92.86 10.3951ZM91.4468 9.03597H89.7832V6.10282H91.4468C92.0014 6.10282 92.395 6.22686 92.6633 6.47842C92.9316 6.72823 93.0748 7.08635 93.0748 7.55105C93.0748 8.01575 92.9316 8.39135 92.6633 8.6429C92.395 8.91018 92.0014 9.03597 91.4468 9.03597Z" fill="#002C59"/>
<path d="M97.5293 4.43794V14.4568H99.5329V4.43794H97.5293Z" fill="#002C59"/>
<path d="M108.641 4.42067V11.3072L104.097 4.42067H102.094V14.457H104.097V7.58792L108.641 14.457H110.662V4.42067H108.641Z" fill="#002C59"/>
<path d="M119.23 12.3813C118.801 12.6137 118.318 12.7395 117.781 12.7395C117.191 12.7395 116.672 12.6137 116.225 12.3272C115.778 12.0599 115.42 11.6651 115.169 11.1655C114.919 10.6641 114.794 10.0911 114.794 9.42898C114.794 8.7669 114.919 8.1764 115.169 7.67679C115.42 7.17541 115.778 6.79982 116.225 6.53079C116.672 6.24603 117.191 6.12026 117.781 6.12026C118.318 6.12026 118.801 6.24603 119.23 6.47839C119.642 6.71073 119.964 7.06887 120.196 7.55103H122.504C122.164 6.53081 121.574 5.74466 120.733 5.17166C119.892 4.59866 118.908 4.31391 117.799 4.31391C116.833 4.31391 115.975 4.52704 115.205 4.9568C114.436 5.40402 113.828 6.01196 113.381 6.78238C112.933 7.5685 112.719 8.44549 112.719 9.42902C112.719 10.4126 112.933 11.2895 113.381 12.0774C113.828 12.8461 114.436 13.454 115.205 13.8838C115.975 14.3135 116.833 14.5284 117.799 14.5284C118.926 14.5284 119.91 14.2594 120.751 13.6864C121.574 13.1151 122.164 12.3098 122.504 11.2896H120.196C119.964 11.7735 119.642 12.1298 119.23 12.3813Z" fill="#002C59"/>
<path d="M124.793 4.43794V14.4568H126.797V4.43794H124.793Z" fill="#002C59"/>
<path d="M136.243 5.94033C135.974 5.47564 135.563 5.10004 135.026 4.85022C134.472 4.58119 133.81 4.43794 133.041 4.43794H129.355V14.4568H131.359V10.61H133.041C133.864 10.61 134.543 10.4667 135.08 10.1802C135.617 9.89373 136.028 9.51811 136.278 9.03595C136.529 8.57125 136.654 8.06988 136.654 7.53357C136.654 6.9431 136.511 6.40677 136.243 5.94033ZM134.186 8.60619C133.917 8.85775 133.506 8.98179 132.951 8.98179H131.359V6.06611H132.951C134.042 6.06611 134.579 6.56748 134.579 7.53356C134.579 7.99826 134.454 8.35637 134.186 8.60619Z" fill="#002C59"/>
<path d="M140.66 12.8635V4.43794H138.639V14.4568H143.952V12.8636L140.66 12.8635Z" fill="#002C59"/>
<path d="M151.607 6.06631V4.42067H145.793V14.457H151.607V12.8113H147.814V10.1629H151.178V8.57145H147.814V6.06631H151.607Z" fill="#002C59"/>
<path d="M160.554 10.037C160.268 9.66142 159.91 9.37666 159.498 9.17926C159.087 8.99931 158.55 8.80366 157.906 8.60626C157.423 8.46301 157.048 8.33898 156.797 8.23066C156.529 8.1241 156.314 7.98085 156.135 7.80092C155.956 7.62273 155.867 7.40785 155.867 7.14057C155.867 6.74576 155.992 6.45925 156.225 6.2636C156.457 6.0662 156.762 5.95963 157.155 5.95963C157.602 5.95963 157.96 6.0662 158.246 6.29854C158.515 6.51342 158.658 6.79991 158.676 7.15805H160.894C160.822 6.24612 160.465 5.54735 159.821 5.04598C159.176 4.54634 158.336 4.29479 157.298 4.29479C156.618 4.29479 156.01 4.42056 155.473 4.65292C154.937 4.88526 154.508 5.22592 154.221 5.65568C153.917 6.10291 153.774 6.62175 153.774 7.21048C153.774 7.83764 153.917 8.33902 154.203 8.71461C154.508 9.09021 154.847 9.37672 155.259 9.57237C155.67 9.75231 156.189 9.94796 156.851 10.1279C157.316 10.2712 157.692 10.3952 157.96 10.5035C158.246 10.6101 158.461 10.7533 158.658 10.9507C158.837 11.1464 158.926 11.3787 158.926 11.6827C158.926 12.0408 158.783 12.3448 158.515 12.5597C158.246 12.792 157.889 12.9003 157.423 12.9003C156.958 12.9003 156.6 12.7745 156.332 12.5422C156.064 12.3098 155.921 11.9692 155.903 11.5587H153.738C153.756 12.1841 153.917 12.7029 154.239 13.1501C154.579 13.6148 155.008 13.9555 155.581 14.1878C156.135 14.4377 156.761 14.546 157.459 14.546C158.193 14.546 158.837 14.4202 159.373 14.1337C159.91 13.8664 160.303 13.5083 160.59 13.0436C160.858 12.5771 161.001 12.095 161.001 11.5587C161.001 10.9315 160.858 10.4318 160.554 10.037Z" fill="#002C59"/>
<path d="M39.2122 19.4654C38.9081 18.9099 38.4609 18.4993 37.8884 18.2128C37.316 17.9263 36.6541 17.7831 35.867 17.7831H33.6309V24.9386H35.867C36.6541 24.9386 37.316 24.7954 37.8884 24.5106C38.4609 24.2241 38.9081 23.8118 39.2122 23.2755C39.5164 22.7392 39.6594 22.0946 39.6594 21.3608C39.6594 20.6463 39.5164 20.0017 39.2122 19.4654ZM37.9778 23.4362C37.4949 23.9202 36.7972 24.17 35.867 24.17H34.579V18.5343H35.867C36.7793 18.5343 37.4949 18.7858 37.9778 19.2855C38.4609 19.7868 38.7113 20.4856 38.7113 21.3609C38.7113 22.2553 38.4609 22.9349 37.9778 23.4362Z" fill="#002C59"/>
<path d="M45.1527 18.5342V17.7655H41.3066V24.9386H45.1527V24.1699H42.2368V21.7015H44.8486V20.9328H42.2368V18.5342H45.1527Z" fill="#002C59"/>
<path d="M51.681 17.7655V23.4537L47.9243 17.7655H46.9941V24.9386H47.9243V19.233L51.681 24.9386H52.6112V17.7655H51.681Z" fill="#002C59"/>
<path d="M54.168 17.7831V18.5343H56.1357V24.9386H57.066V18.5343H59.0158V17.7831H54.168Z" fill="#002C59"/>
<path d="M63.7942 17.8197H62.7209L60.127 24.9386H61.1108L61.7012 23.3471H64.8138L65.3863 24.9386H66.3702L63.7942 17.8197ZM61.9517 22.5785L63.2575 18.964L64.5456 22.5785H61.9517Z" fill="#002C59"/>
<path d="M68.8543 24.17V17.7831H67.9062V24.9386H71.3588V24.17H68.8543Z" fill="#002C59"/>
<path d="M75.4746 17.7831V18.5343H77.4424V24.9386H78.3726V18.5343H80.3226V17.7831H75.4746Z" fill="#002C59"/>
<path d="M84.9717 21.9338C85.5442 21.8081 85.9556 21.5583 86.2418 21.1827C86.528 20.8071 86.6712 20.3773 86.6712 19.8759C86.6712 19.4829 86.5817 19.1247 86.4028 18.8033C86.206 18.4818 85.9377 18.2303 85.5621 18.0521C85.1864 17.8739 84.7212 17.7831 84.1846 17.7831H81.877V24.9386H82.8071V22.0055H83.9341L85.6515 24.9386H86.7606L84.9717 21.9338ZM82.8071 21.2543V18.5535H84.1846C84.7033 18.5535 85.079 18.66 85.3295 18.8924C85.58 19.1247 85.7051 19.4654 85.7051 19.8759C85.7051 20.3056 85.58 20.6271 85.3295 20.8787C85.079 21.1285 84.7033 21.2542 84.1846 21.2542L82.8071 21.2543Z" fill="#002C59"/>
<path d="M91.7531 17.8197H90.6619L88.0859 24.9386H89.0698L89.6423 23.3471H92.7549L93.3453 24.9386H94.3292L91.7531 17.8197ZM89.9106 22.5785L91.1986 18.964L92.5045 22.5785H89.9106Z" fill="#002C59"/>
<path d="M95.8672 17.7831V24.9386H96.7973V17.7831H95.8672Z" fill="#002C59"/>
<path d="M103.49 17.7655V23.4537L99.733 17.7655H98.8027V24.9386H99.733V19.233L103.49 24.9386H104.438V17.7655H103.49Z" fill="#002C59"/>
<path d="M106.422 17.7831V24.9386H107.37V17.7831H106.422Z" fill="#002C59"/>
<path d="M114.06 17.7655V23.4537L110.303 17.7655H109.373V24.9386H110.303V19.233L114.06 24.9386H114.99V17.7655H114.06Z" fill="#002C59"/>
<path d="M119.91 21.0742V21.8271H122.754C122.683 22.5416 122.414 23.1147 121.967 23.5252C121.52 23.9375 120.93 24.1524 120.232 24.1524C119.749 24.1524 119.284 24.044 118.89 23.8117C118.497 23.5794 118.175 23.2579 117.942 22.8282C117.71 22.3984 117.602 21.9162 117.602 21.3432C117.602 20.7895 117.71 20.2881 117.942 19.8583C118.175 19.4286 118.497 19.1071 118.89 18.8748C119.284 18.6424 119.749 18.5341 120.232 18.5341C120.733 18.5341 121.18 18.6424 121.556 18.8748C121.931 19.1071 122.218 19.4286 122.414 19.8583H123.541C123.273 19.1613 122.844 18.6424 122.254 18.2668C121.681 17.8912 121.001 17.6938 120.232 17.6938C119.57 17.6938 118.962 17.8546 118.425 18.1585C117.871 18.4817 117.441 18.9097 117.119 19.4653C116.797 20.0191 116.654 20.6462 116.654 21.3432C116.654 22.0403 116.797 22.6674 117.119 23.2212C117.441 23.7768 117.871 24.224 118.425 24.5279C118.962 24.8319 119.57 24.9926 120.232 24.9926C120.876 24.9926 121.449 24.8494 121.949 24.5629C122.468 24.2764 122.88 23.9008 123.202 23.4012C123.506 22.9173 123.703 22.381 123.756 21.7905V21.0742L119.91 21.0742Z" fill="#002C59"/>
<path d="M24.5078 0.521311H2.45078C1.0912 0.521311 0 1.63064 0 2.9723V25.0294C0 26.3886 1.0912 27.4787 2.45078 27.4787H24.5078C25.8674 27.4787 26.9586 26.3886 26.9586 25.0294V2.9723C26.9586 1.63064 25.8674 0.521311 24.5078 0.521311ZM21.4488 16.1741C20.2323 17.39 18.5508 18.1412 16.7083 18.1412H16.5472V8.35643C16.5472 8.06992 16.2789 7.85506 16.0106 7.90921L9.99992 8.8578V11.9517L12.4507 11.6477V21.2542C12.1287 22.9541 10.6439 24.2415 8.85502 24.2415C7.83533 24.2415 6.92298 23.8485 6.26111 23.1689C5.59922 22.5068 5.18781 21.5932 5.18781 20.5921L5.16991 6.72825C5.16991 5.63641 6.06435 4.74196 7.17346 4.74196L16.7083 4.72448C20.4112 4.72448 23.4166 7.71179 23.4166 11.4328C23.4166 13.2759 22.6652 14.9565 21.4488 16.1741Z" fill="#002C59"/>
</g>
<defs>
<clipPath id="clip0_10367_23075">
<rect width="161" height="26.9574" fill="white" transform="translate(0 0.521311)"/>
</clipPath>
</defs>
</svg>
