<svg width="35" height="35" viewBox="0 0 35 35" fill="none" xmlns="http://www.w3.org/2000/svg">
<g id="ic:round-headset">
<path id="Vector" d="M16.625 1.48743C9.65417 1.93951 4.375 8.04993 4.375 15.0353V24.7916C4.375 27.2124 6.32917 29.1666 8.75 29.1666H10.2083C11.8125 29.1666 13.125 27.8541 13.125 26.2499V20.4166C13.125 18.8124 11.8125 17.4999 10.2083 17.4999H7.29167V15.0062C7.29167 9.40618 11.6083 4.53534 17.1938 4.37493C18.5599 4.33392 19.9203 4.56767 21.1944 5.06229C22.4685 5.55692 23.6303 6.30236 24.6109 7.25441C25.5915 8.20645 26.371 9.34572 26.903 10.6046C27.4351 11.8636 27.709 13.2165 27.7083 14.5833V17.4999H24.7917C23.1875 17.4999 21.875 18.8124 21.875 20.4166V26.2499C21.875 27.8541 23.1875 29.1666 24.7917 29.1666H26.25C28.6708 29.1666 30.625 27.2124 30.625 24.7916V14.5833C30.625 7.04367 24.2667 0.991592 16.625 1.48743Z" fill="#64748B"/>
</g>
</svg>
