<svg id="DeleteIcon" width="20" height="20" viewBox="0 0 20 20" fill="none" xmlns="http://www.w3.org/2000/svg">
<path d="M12.2833 7.50043L11.995 15.0004M8.005 15.0004L7.71667 7.50043M16.0233 4.82543C16.3083 4.86877 16.5917 4.9146 16.875 4.96377M16.0233 4.82543L15.1333 16.3946C15.097 16.8656 14.8842 17.3056 14.5375 17.6265C14.1908 17.9474 13.7358 18.1256 13.2633 18.1254H6.73667C6.26425 18.1256 5.80919 17.9474 5.46248 17.6265C5.11578 17.3056 4.90299 16.8656 4.86667 16.3946L3.97667 4.82543M16.0233 4.82543C15.0616 4.68003 14.0948 4.56968 13.125 4.4946M3.97667 4.82543C3.69167 4.86793 3.40833 4.91377 3.125 4.96293M3.97667 4.82543C4.93844 4.68003 5.9052 4.56968 6.875 4.4946M13.125 4.4946V3.73127C13.125 2.74793 12.3667 1.92793 11.3833 1.8971C10.4613 1.86763 9.53865 1.86763 8.61667 1.8971C7.63333 1.92793 6.875 2.74877 6.875 3.73127V4.4946M13.125 4.4946C11.0448 4.33383 8.95523 4.33383 6.875 4.4946" stroke="currentColor" stroke-width="1.25" stroke-linecap="round" stroke-linejoin="round"/>
</svg>
