<svg width="20" height="20" viewBox="0 0 20 20" fill="none" xmlns="http://www.w3.org/2000/svg">
<g clip-path="url(#clip0_8240_5560)">
<path fill-rule="evenodd" clip-rule="evenodd" d="M10.5883 13.0844C10.432 13.2406 10.2201 13.3284 9.99915 13.3284C9.77818 13.3284 9.56625 13.2406 9.40998 13.0844L4.69581 8.37024C4.61622 8.29337 4.55274 8.20141 4.50906 8.09974C4.46539 7.99807 4.4424 7.88872 4.44144 7.77807C4.44048 7.66743 4.46156 7.55769 4.50346 7.45528C4.54536 7.35287 4.60724 7.25982 4.68548 7.18158C4.76373 7.10333 4.85677 7.04146 4.95918 6.99956C5.0616 6.95765 5.17133 6.93657 5.28198 6.93753C5.39263 6.93849 5.50198 6.96148 5.60365 7.00516C5.70532 7.04883 5.79727 7.11231 5.87415 7.19191L9.99915 11.3169L14.1241 7.19191C14.2813 7.04011 14.4918 6.95611 14.7103 6.95801C14.9288 6.95991 15.1378 7.04755 15.2923 7.20206C15.4468 7.35656 15.5345 7.56558 15.5364 7.78407C15.5383 8.00257 15.4543 8.21307 15.3025 8.37024L10.5883 13.0844Z" fill="black"/>
</g>
<defs>
<clipPath id="clip0_8240_5560">
<rect width="20" height="20" fill="white"/>
</clipPath>
</defs>
</svg>
