<svg width="88" height="60" viewBox="0 0 88 60" fill="none" xmlns="http://www.w3.org/2000/svg">
<g opacity="0.3">
<path opacity="0.6" d="M58.4175 12.31C57.0508 12.3087 55.7403 11.7651 54.7739 10.7987C53.8074 9.83221 53.2638 8.52178 53.2625 7.155V0H30.2275C28.4433 0 26.7321 0.708785 25.4705 1.97044C24.2088 3.23209 23.5 4.94326 23.5 6.7275V47.2825C23.5026 49.065 24.2126 50.7736 25.474 52.0331C26.7354 53.2926 28.445 54 30.2275 54H57.8775C59.6617 54 61.3729 53.2912 62.6346 52.0296C63.8962 50.7679 64.605 49.0567 64.605 47.2725V12.31H58.4175Z" fill="#A140FF"/>
</g>
<path d="M64.6042 12.31H58.4167C57.05 12.3087 55.7395 11.7651 54.7731 10.7987C53.8066 9.83221 53.263 8.52178 53.2617 7.155V0L64.6042 12.31Z" fill="#A140FF"/>
<path d="M83.4633 42.6504H4.07166C1.85423 42.6504 0.0566406 44.4479 0.0566406 46.6653V55.9854C0.0566406 58.2028 1.85423 60.0004 4.07166 60.0004H83.4633C85.6807 60.0004 87.4783 58.2028 87.4783 55.9854V46.6653C87.4783 44.4479 85.6807 42.6504 83.4633 42.6504Z" fill="#A140FF"/>
<path d="M4.78206 54.625V47.4507H9.60667V48.7507H6.2747V50.3782H9.41407V51.6782H6.2747V53.325H9.60667V54.625H4.78206ZM10.5491 54.625V47.4507H11.9936L14.6804 51.0138H14.0063L16.616 47.4507H18.0605V54.625H16.5678V49.0974L17.1649 49.2322L14.4011 52.7953H14.2085L11.541 49.2322L12.0418 49.0974V54.625H10.5491ZM19.429 54.625V47.4507H22.4624C22.9568 47.4507 23.3805 47.5341 23.7336 47.7011C24.0867 47.868 24.3563 48.1087 24.5425 48.4233C24.7287 48.7315 24.8218 49.107 24.8218 49.55C24.8218 49.8646 24.7351 50.1663 24.5618 50.4552C24.3884 50.7377 24.1027 50.9752 23.7047 51.1678V50.436C24.0835 50.5836 24.3756 50.7602 24.581 50.9656C24.7865 51.1711 24.9277 51.3958 25.0047 51.6397C25.0818 51.8773 25.1203 52.1276 25.1203 52.3909C25.1203 53.097 24.886 53.646 24.4173 54.0376C23.9487 54.4292 23.297 54.625 22.4624 54.625H19.429ZM20.9216 53.325H22.6358C22.9375 53.325 23.1783 53.2383 23.358 53.0649C23.5378 52.8916 23.6277 52.6669 23.6277 52.3909C23.6277 52.1084 23.5378 51.8805 23.358 51.7071C23.1783 51.5338 22.9375 51.4471 22.6358 51.4471H20.9216V53.325ZM20.9216 50.1471H22.5684C22.7995 50.1471 22.9824 50.0829 23.1173 49.9545C23.2585 49.8197 23.3291 49.6431 23.3291 49.4248C23.3291 49.2065 23.2585 49.0332 23.1173 48.9048C22.9824 48.77 22.7995 48.7026 22.5684 48.7026H20.9216V50.1471ZM26.1741 54.625V47.4507H30.9987V48.7507H27.6667V50.3782H30.8061V51.6782H27.6667V53.325H30.9987V54.625H26.1741ZM31.9412 54.625V47.4507H34.2812C35.0581 47.4507 35.7322 47.6048 36.3035 47.9129C36.8749 48.2211 37.3179 48.6448 37.6325 49.1841C37.947 49.7234 38.1043 50.3397 38.1043 51.033C38.1043 51.7264 37.947 52.3459 37.6325 52.8916C37.3179 53.4309 36.8749 53.8546 36.3035 54.1628C35.7322 54.4709 35.0581 54.625 34.2812 54.625H31.9412ZM33.4338 53.325H34.3198C34.7884 53.325 35.1929 53.2319 35.5331 53.0457C35.8734 52.8531 36.1366 52.5867 36.3228 52.2464C36.5154 51.8997 36.6117 51.4953 36.6117 51.033C36.6117 50.5644 36.5154 50.1599 36.3228 49.8197C36.1366 49.4794 35.8734 49.2162 35.5331 49.03C35.1929 48.8438 34.7884 48.7507 34.3198 48.7507H33.4338V53.325ZM39.1565 54.625V47.4507H41.4966C42.2734 47.4507 42.9475 47.6048 43.5189 47.9129C44.0902 48.2211 44.5332 48.6448 44.8478 49.1841C45.1624 49.7234 45.3197 50.3397 45.3197 51.033C45.3197 51.7264 45.1624 52.3459 44.8478 52.8916C44.5332 53.4309 44.0902 53.8546 43.5189 54.1628C42.9475 54.4709 42.2734 54.625 41.4966 54.625H39.1565ZM40.6491 53.325H41.5351C42.0037 53.325 42.4082 53.2319 42.7485 53.0457C43.0887 52.8531 43.3519 52.5867 43.5381 52.2464C43.7307 51.8997 43.827 51.4953 43.827 51.033C43.827 50.5644 43.7307 50.1599 43.5381 49.8197C43.3519 49.4794 43.0887 49.2162 42.7485 49.03C42.4082 48.8438 42.0037 48.7507 41.5351 48.7507H40.6491V53.325ZM46.3718 54.625V47.4507H51.1964V48.7507H47.8644V50.3782H51.0038V51.6782H47.8644V53.325H51.1964V54.625H46.3718ZM52.1389 54.625V47.4507H54.4789C55.2558 47.4507 55.9299 47.6048 56.5012 47.9129C57.0726 48.2211 57.5156 48.6448 57.8302 49.1841C58.1447 49.7234 58.302 50.3397 58.302 51.033C58.302 51.7264 58.1447 52.3459 57.8302 52.8916C57.5156 53.4309 57.0726 53.8546 56.5012 54.1628C55.9299 54.4709 55.2558 54.625 54.4789 54.625H52.1389ZM53.6315 53.325H54.5175C54.9861 53.325 55.3906 53.2319 55.7308 53.0457C56.0711 52.8531 56.3343 52.5867 56.5205 52.2464C56.7131 51.8997 56.8094 51.4953 56.8094 51.033C56.8094 50.5644 56.7131 50.1599 56.5205 49.8197C56.3343 49.4794 56.0711 49.2162 55.7308 49.03C55.3906 48.8438 54.9861 48.7507 54.5175 48.7507H53.6315V53.325ZM61.1809 54.625V47.4507H62.6735V53.325H65.7069V54.625H61.1809ZM66.5435 54.625V47.4507H68.0362V54.625H66.5435ZM69.4047 54.625V47.4507H70.5507L74.4026 52.5257L73.7863 52.6701V47.4507H75.279V54.625H74.1234L70.3388 49.5115L70.8973 49.367V54.625H69.4047ZM76.6482 54.625V47.4507H78.1409V51.0427L77.7268 50.8982L80.5965 47.4507H82.4647L79.6239 50.8789L79.7106 49.8197L82.5225 54.625H80.7795L79.0268 51.5916L78.1409 52.6605V54.625H76.6482Z" fill="white"/>
<path d="M33.6272 28.5464C33.6237 28.4388 33.6563 28.3332 33.7197 28.2464C33.7956 28.1489 33.8867 28.0645 33.9897 27.9964C34.1456 27.9156 34.3069 27.8455 34.4722 27.7864L34.9547 27.5864L36.8847 26.7739C37.153 26.6489 37.653 26.4405 38.3847 26.1489L39.3022 25.7739L39.6322 25.6564L39.6897 25.6314C39.7054 25.6281 39.7215 25.6281 39.7372 25.6314C39.7742 25.615 39.8143 25.6065 39.8547 25.6064C39.9322 25.6021 40.0096 25.6134 40.0826 25.6396C40.1556 25.6657 40.2227 25.7063 40.2797 25.7589C40.3281 25.8044 40.3666 25.8595 40.3928 25.9205C40.4191 25.9816 40.4325 26.0474 40.4322 26.1139V26.7489C40.4298 26.8667 40.3934 26.9813 40.3272 27.0789C40.2577 27.1877 40.1539 27.2704 40.0322 27.3139L36.0897 28.9264L40.0322 30.5389C40.1496 30.5873 40.2516 30.6668 40.3272 30.7689C40.3959 30.8623 40.4327 30.9754 40.4322 31.0914V31.7264C40.4323 31.7935 40.4188 31.86 40.3926 31.9219C40.3664 31.9837 40.328 32.0397 40.2797 32.0864C40.2236 32.1405 40.1568 32.1825 40.0837 32.2096C40.0105 32.2367 39.9326 32.2484 39.8547 32.2439C39.8145 32.2434 39.7747 32.2358 39.7372 32.2214L39.6322 32.1864L39.3022 32.0689L38.3922 31.6989L36.8922 31.0764L34.9622 30.2639L34.4797 30.0639C34.3247 30.0014 34.1622 29.9314 33.9972 29.8514C33.8948 29.8036 33.8071 29.7292 33.7434 29.636C33.6796 29.5428 33.6421 29.4341 33.6347 29.3214L33.6272 28.5464Z" fill="#A140FF"/>
<path d="M45.4042 32.9262C45.2791 32.9292 45.1554 32.8992 45.0456 32.839C44.9358 32.7789 44.8439 32.6908 44.7792 32.5837C44.7255 32.5066 44.6826 32.4224 44.6517 32.3337L44.5692 32.1112L42.7692 28.1337L42.6392 27.8387C42.4892 27.5187 42.1992 26.8837 41.7692 25.9337C41.2108 24.7254 40.9316 24.0628 40.9316 23.9462C40.9317 23.8759 40.9478 23.8065 40.9785 23.7433C41.0093 23.6801 41.0539 23.6246 41.1092 23.5812C41.2339 23.4757 41.3934 23.4205 41.5566 23.4262H42.1417C42.2649 23.4241 42.3865 23.4546 42.4941 23.5148C42.6017 23.575 42.6914 23.6626 42.7542 23.7687L42.8842 24.0187L42.9667 24.2412L43.4366 25.2762L44.7667 28.2187L44.9417 28.5937L45.7667 30.4062C46.0829 31.0564 46.3617 31.7241 46.6017 32.4062C46.6012 32.4761 46.5851 32.5449 46.5543 32.6077C46.5236 32.6705 46.4791 32.7255 46.4241 32.7687C46.2995 32.8744 46.14 32.9296 45.9767 32.9237L45.4042 32.9262Z" fill="#A140FF"/>
<path d="M47.5823 32.2509C47.5024 32.2561 47.4224 32.2448 47.3471 32.2177C47.2718 32.1906 47.203 32.1483 47.1448 32.0934C47.0486 31.9981 46.9938 31.8688 46.9922 31.7334V31.0984C46.9911 30.9831 47.0261 30.8704 47.0923 30.7759C47.167 30.671 47.2715 30.5909 47.3923 30.5459L51.3473 28.9334L47.3923 27.3234C47.2722 27.2709 47.1704 27.1839 47.0998 27.0734C47.0316 26.9786 46.9941 26.8652 46.9922 26.7484V26.1034C46.9914 26.0375 47.0043 25.9721 47.0301 25.9114C47.056 25.8507 47.0941 25.7961 47.1423 25.7509C47.2598 25.6452 47.4144 25.5904 47.5722 25.5984C47.6088 25.5978 47.6449 25.6064 47.6772 25.6234C47.6987 25.6196 47.7207 25.6196 47.7422 25.6234L47.7948 25.6484C47.7798 25.6484 47.8847 25.6784 48.1122 25.7659L49.0423 26.1409C48.9939 26.1193 49.4939 26.3276 50.5423 26.7659C51.1139 27.0009 51.7689 27.2793 52.5072 27.6009L52.6947 27.6709L52.9648 27.7784C53.1239 27.835 53.2778 27.9052 53.4247 27.9884C53.5297 28.0363 53.6195 28.1124 53.6839 28.2081C53.7483 28.3039 53.785 28.4156 53.7898 28.5309V29.3059C53.7875 29.4122 53.7526 29.5152 53.6897 29.6009C53.6199 29.698 53.5294 29.7782 53.4247 29.8359C53.2822 29.9059 53.1147 29.9809 52.9247 30.0609L52.4247 30.2609L48.0697 32.0834C47.9447 32.1459 47.8698 32.1859 47.8473 32.2009L47.7997 32.2359L47.5823 32.2509Z" fill="#A140FF"/>
</svg>
