<svg width="16" height="16" viewBox="0 0 16 16" fill="none" xmlns="http://www.w3.org/2000/svg">
<path d="M7.99935 12.0007C7.99935 11.647 8.13982 11.3079 8.38987 11.0578C8.63992 10.8078 8.97906 10.6673 9.33268 10.6673C9.6863 10.6673 10.0254 10.8078 10.2755 11.0578C10.5255 11.3079 10.666 11.647 10.666 12.0007M7.99935 12.0007C7.99935 12.3543 8.13983 12.6934 8.38987 12.9435C8.63992 13.1935 8.97906 13.334 9.33268 13.334C9.6863 13.334 10.0254 13.1935 10.2755 12.9435C10.5255 12.6934 10.666 12.3543 10.666 12.0007M7.99935 12.0007L2.66602 12.0007M10.666 12.0007L13.3327 12.0007M3.99935 8.00065C3.99935 7.64703 4.13982 7.30789 4.38987 7.05784C4.63992 6.80779 4.97906 6.66732 5.33268 6.66732C5.6863 6.66732 6.02544 6.80779 6.27549 7.05784C6.52554 7.30789 6.66602 7.64703 6.66602 8.00065M3.99935 8.00065C3.99935 8.35427 4.13982 8.69341 4.38987 8.94346C4.63992 9.19351 4.97906 9.33398 5.33268 9.33398C5.6863 9.33398 6.02544 9.19351 6.27549 8.94346C6.52554 8.69341 6.66602 8.35427 6.66602 8.00065M3.99935 8.00065L2.66602 8.00065M6.66602 8.00065L13.3327 8.00065M9.99935 4.00065C9.99935 3.64703 10.1398 3.30789 10.3899 3.05784C10.6399 2.80779 10.9791 2.66732 11.3327 2.66732C11.6863 2.66732 12.0254 2.80779 12.2755 3.05784C12.5255 3.30789 12.666 3.64703 12.666 4.00065M9.99935 4.00065C9.99935 4.35427 10.1398 4.69341 10.3899 4.94346C10.6399 5.19351 10.9791 5.33398 11.3327 5.33398C11.6863 5.33398 12.0254 5.19351 12.2755 4.94346C12.5255 4.69341 12.666 4.35427 12.666 4.00065M9.99935 4.00065L2.66601 4.00065M12.666 4.00065L13.3327 4.00065" stroke="#71717A" stroke-linecap="round" stroke-linejoin="round"/>
</svg>
