<svg width="24" height="24" viewBox="0 0 24 24" id="Roles" fill="none" xmlns="http://www.w3.org/2000/svg">
<path d="M17.9219 7.5V10.5M17.9219 10.5V13.5M17.9219 10.5H20.9219M17.9219 10.5H14.9219M12.6719 6.375C12.6719 7.27011 12.3163 8.12855 11.6834 8.76149C11.0504 9.39442 10.192 9.75 9.29688 9.75C8.40177 9.75 7.54332 9.39442 6.91039 8.76149C6.27745 8.12855 5.92188 7.27011 5.92188 6.375C5.92188 5.47989 6.27745 4.62145 6.91039 3.98851C7.54332 3.35558 8.40177 3 9.29688 3C10.192 3 11.0504 3.35558 11.6834 3.98851C12.3163 4.62145 12.6719 5.47989 12.6719 6.375ZM2.92188 19.235V19.125C2.92187 17.4342 3.59352 15.8127 4.78907 14.6172C5.98461 13.4216 7.60612 12.75 9.29688 12.75C10.9876 12.75 12.6091 13.4216 13.8047 14.6172C15.0002 15.8127 15.6719 17.4342 15.6719 19.125V19.234C13.7474 20.3931 11.5425 21.0038 9.29587 21C6.96487 21 4.78387 20.355 2.92188 19.234V19.235Z" stroke="currentColor" stroke-width="1.5" stroke-linecap="round" stroke-linejoin="round"/>
</svg>
