<svg width="18" height="12" viewBox="0 0 18 12" fill="none" xmlns="http://www.w3.org/2000/svg">
<path d="M1.20312 12H12.2031C12.7531 12 13.2031 11.55 13.2031 11C13.2031 10.45 12.7531 10 12.2031 10H1.20312C0.653125 10 0.203125 10.45 0.203125 11C0.203125 11.55 0.653125 12 1.20312 12ZM1.20312 7H9.20312C9.75313 7 10.2031 6.55 10.2031 6C10.2031 5.45 9.75313 5 9.20312 5H1.20312C0.653125 5 0.203125 5.45 0.203125 6C0.203125 6.55 0.653125 7 1.20312 7ZM0.203125 1C0.203125 1.55 0.653125 2 1.20312 2H12.2031C12.7531 2 13.2031 1.55 13.2031 1C13.2031 0.45 12.7531 0 12.2031 0H1.20312C0.653125 0 0.203125 0.45 0.203125 1ZM17.5031 8.88L14.6231 6L17.5031 3.12C17.8931 2.73 17.8931 2.1 17.5031 1.71C17.1131 1.32 16.4831 1.32 16.0931 1.71L12.5031 5.3C12.1131 5.69 12.1131 6.32 12.5031 6.71L16.0931 10.3C16.4831 10.69 17.1131 10.69 17.5031 10.3C17.8831 9.91 17.8931 9.27 17.5031 8.88Z" fill="#B8BFCC"/>
</svg>
