<svg width="14" height="19" viewBox="0 0 14 19" fill="none" xmlns="http://www.w3.org/2000/svg">
<path id="t" d="M4.60731 2.29071C3.83922 2.29071 3.24645 2.41594 2.829 2.6664C2.42826 2.91687 2.1277 3.27587 1.92733 3.74341C1.74365 4.19425 1.59337 4.73693 1.47649 5.37144C1.24272 5.37144 0.992251 5.35474 0.725087 5.32135C0.457923 5.28795 0.232503 5.22116 0.0488281 5.12098C0.18241 4.41967 0.282597 3.70167 0.349388 2.96696C0.432876 2.23226 0.474621 1.5727 0.474621 0.988281C0.992251 1.00498 1.58502 1.02168 2.25293 1.03837C2.93754 1.05507 3.68059 1.06342 4.48208 1.06342C5.30027 1.06342 6.16855 1.06342 7.08693 1.06342C8.00531 1.06342 8.87359 1.06342 9.69178 1.06342C10.51 1.06342 11.2614 1.05507 11.946 1.03837C12.6473 1.02168 13.2401 1.00498 13.7243 0.988281C13.7076 1.6061 13.7159 2.24896 13.7493 2.91687C13.7994 3.58478 13.8662 4.31948 13.9497 5.12098C13.7493 5.20446 13.5239 5.27125 13.2734 5.32135C13.0397 5.37144 12.7809 5.38814 12.497 5.37144C12.4469 4.35288 12.1964 3.58478 11.7456 3.06715C11.3115 2.54952 10.6185 2.29071 9.66673 2.29071H4.60731ZM5.68432 1.76473H8.4645V14.5886C8.4645 15.173 8.51459 15.6239 8.61477 15.9411C8.71496 16.2584 8.90699 16.4838 9.19085 16.6174C9.49141 16.751 9.92555 16.8344 10.4933 16.8678C10.5434 17.0014 10.5768 17.1768 10.5935 17.3938C10.6269 17.5942 10.6436 17.8196 10.6436 18.0701C10.1092 18.0367 9.5415 18.0116 8.94038 17.9949C8.33926 17.9949 7.72979 17.9949 7.11198 17.9949C6.69453 17.9949 6.26039 17.9949 5.80955 17.9949C5.37541 18.0116 4.94962 18.02 4.53217 18.02C4.13143 18.0367 3.76408 18.0534 3.43012 18.0701C3.43012 17.8196 3.43847 17.5942 3.45517 17.3938C3.48856 17.1768 3.53031 17.0014 3.5804 16.8678C4.14813 16.8344 4.58227 16.751 4.88283 16.6174C5.18339 16.4838 5.39211 16.2584 5.50899 15.9411C5.62588 15.6239 5.68432 15.173 5.68432 14.5886V1.76473Z" fill="black"/>
</svg>
