<svg width="20" height="20" viewBox="0 0 20 20" fill="none" xmlns="http://www.w3.org/2000/svg">
<path d="M9.16537 15.8346H10.832V12.3555L12.1654 13.6888L13.332 12.5013L9.9987 9.16797L6.66537 12.5013L7.85287 13.668L9.16537 12.3555V15.8346ZM4.9987 18.3346C4.54037 18.3346 4.14787 18.1713 3.8212 17.8446C3.49453 17.518 3.33148 17.1257 3.33203 16.668V3.33464C3.33203 2.8763 3.49537 2.4838 3.82203 2.15714C4.1487 1.83047 4.54092 1.66741 4.9987 1.66797H11.6654L16.6654 6.66797V16.668C16.6654 17.1263 16.502 17.5188 16.1754 17.8455C15.8487 18.1721 15.4565 18.3352 14.9987 18.3346H4.9987ZM10.832 7.5013H14.9987L10.832 3.33464V7.5013Z" fill="#252525"/>
</svg>
