<svg width="32" height="32" viewBox="0 0 32 32" fill="none" xmlns="http://www.w3.org/2000/svg">
<g id="material-symbols:upload-rounded">
<path id="Vector" d="M15.9987 21.3318C15.6209 21.3318 15.304 21.2038 15.048 20.9478C14.792 20.6918 14.6645 20.3753 14.6654 19.9984V10.4651L12.1654 12.9651C11.8987 13.2318 11.5876 13.3651 11.232 13.3651C10.8765 13.3651 10.5543 13.2207 10.2654 12.9318C9.9987 12.6651 9.87114 12.3487 9.8827 11.9824C9.89426 11.6162 10.0218 11.3104 10.2654 11.0651L15.0654 6.2651C15.1987 6.13177 15.3431 6.03755 15.4987 5.98244C15.6543 5.92733 15.8209 5.89933 15.9987 5.89844C16.1765 5.89844 16.3431 5.92644 16.4987 5.98244C16.6543 6.03844 16.7987 6.13266 16.932 6.2651L21.732 11.0651C21.9987 11.3318 22.1267 11.6487 22.116 12.0158C22.1054 12.3829 21.9774 12.6882 21.732 12.9318C21.4654 13.1984 21.1485 13.3375 20.7814 13.3491C20.4143 13.3607 20.0978 13.2327 19.832 12.9651L17.332 10.4651V19.9984C17.332 20.3762 17.204 20.6931 16.948 20.9491C16.692 21.2051 16.3756 21.3327 15.9987 21.3318ZM7.9987 26.6651C7.26537 26.6651 6.63737 26.4038 6.1147 25.8811C5.59203 25.3584 5.33114 24.7309 5.33203 23.9984V21.3318C5.33203 20.954 5.46003 20.6371 5.71603 20.3811C5.97203 20.1251 6.28848 19.9975 6.66537 19.9984C7.04314 19.9984 7.36003 20.1264 7.61603 20.3824C7.87203 20.6384 7.99959 20.9549 7.9987 21.3318V23.9984H23.9987V21.3318C23.9987 20.954 24.1267 20.6371 24.3827 20.3811C24.6387 20.1251 24.9551 19.9975 25.332 19.9984C25.7098 19.9984 26.0267 20.1264 26.2827 20.3824C26.5387 20.6384 26.6663 20.9549 26.6654 21.3318V23.9984C26.6654 24.7318 26.404 25.3598 25.8814 25.8824C25.3587 26.4051 24.7311 26.666 23.9987 26.6651H7.9987Z" fill="#252525"/>
</g>
</svg>
