<svg width="18" height="18" viewBox="0 0 18 18" fill="none" xmlns="http://www.w3.org/2000/svg">
<path id="&#229;&#189;&#162;&#231;&#138;&#182;" d="M10.5364 7.16867C8.89131 5.52357 6.25514 5.47372 4.55003 7.01911L4.39296 7.16867L1.93561 9.62602C0.239075 11.3225 0.239075 14.073 1.93561 15.7694C3.58065 17.4145 6.21682 17.4644 7.92193 15.919L8.07899 15.7694L9.92201 13.9264C10.2614 13.5871 10.2614 13.037 9.92201 12.6977C9.60884 12.3845 9.11607 12.3604 8.7752 12.6254L8.69333 12.6977L6.85032 14.5407C5.83242 15.5586 4.1821 15.5586 3.16429 14.5407C2.1871 13.5636 2.14801 12.0036 3.04702 10.9798L3.16429 10.8547L5.62164 8.39735C6.63954 7.37944 8.28977 7.37944 9.30758 8.39735C9.64694 8.73662 10.197 8.73662 10.5363 8.39735C10.8756 8.05807 10.8756 7.50794 10.5364 7.16867ZM16.0655 1.63954C14.4205 -0.0055204 11.7843 -0.0553707 10.0792 1.48998L9.9221 1.63954L8.07908 3.48257C7.73981 3.82186 7.73981 4.37196 8.07908 4.71126C8.39226 5.02445 8.8851 5.04854 9.22591 4.78353L9.30776 4.71126L11.1508 2.86822C12.1687 1.85034 13.819 1.85034 14.8369 2.86822C15.814 3.84538 15.8531 5.4054 14.9541 6.42919L14.8369 6.55429L12.3795 9.01168C11.3616 10.0296 9.71124 10.0295 8.69342 9.01168C8.35415 8.67233 7.80402 8.67233 7.46474 9.01168C7.12538 9.35096 7.12547 9.90109 7.46474 10.2404C9.10978 11.8854 11.746 11.9352 13.4511 10.3899L13.6082 10.2404L16.0655 7.78301C17.762 6.08651 17.762 3.336 16.0655 1.63954Z" fill="black"/>
</svg>
