<svg width="51" height="60" viewBox="0 0 51 60" fill="none" xmlns="http://www.w3.org/2000/svg">
<g opacity="0.3">
<path opacity="0.7" d="M35.4175 12.31C34.0507 12.3087 32.7403 11.7651 31.7738 10.7987C30.8073 9.83221 30.2638 8.52178 30.2625 7.155V0H7.22748C5.44367 -1.23166e-07 3.73289 0.708448 2.47131 1.96956C1.20973 3.23067 0.500663 4.94119 0.5 6.725V47.28C0.501988 49.0629 1.21165 50.7722 2.47308 52.0322C3.73452 53.2922 5.44453 54 7.22748 54H34.8775C35.7612 54.0003 36.6363 53.8266 37.4528 53.4886C38.2693 53.1507 39.0112 52.6552 39.6362 52.0304C40.2611 51.4057 40.7569 50.664 41.0952 49.8476C41.4334 49.0312 41.6075 48.1562 41.6075 47.2725V12.31H35.4175Z" fill="#00A944"/>
</g>
<path d="M41.6067 12.31H35.4167C34.0499 12.3087 32.7395 11.7651 31.773 10.7987C30.8065 9.83221 30.263 8.52178 30.2617 7.155V0L41.6067 12.31Z" fill="#00A944"/>
<path d="M46.4859 42.6504H15.2259C13.0085 42.6504 11.2109 44.4479 11.2109 46.6653V55.9854C11.2109 58.2028 13.0085 60.0004 15.2259 60.0004H46.4859C48.7033 60.0004 50.5009 58.2028 50.5009 55.9854V46.6653C50.5009 44.4479 48.7033 42.6504 46.4859 42.6504Z" fill="#00A944"/>
<path d="M24.8415 54.7406C24.2766 54.7406 23.7726 54.6218 23.3296 54.3843C22.8866 54.1467 22.5367 53.8225 22.2799 53.4116C22.0296 52.9943 21.9044 52.5225 21.9044 51.996V47.4507H23.397V51.8997C23.397 52.1822 23.458 52.439 23.58 52.6701C23.7084 52.8948 23.8817 53.0714 24.1 53.1998C24.3183 53.3282 24.5655 53.3924 24.8415 53.3924C25.124 53.3924 25.3712 53.3282 25.583 53.1998C25.8013 53.0714 25.9714 52.8948 26.0934 52.6701C26.2218 52.439 26.286 52.1822 26.286 51.8997V47.4507H27.7786V51.996C27.7786 52.5225 27.6502 52.9943 27.3935 53.4116C27.1431 53.8225 26.7964 54.1467 26.3534 54.3843C25.9104 54.6218 25.4065 54.7406 24.8415 54.7406ZM29.0559 54.625V47.4507H31.8004C32.2948 47.4507 32.7313 47.5374 33.1101 47.7107C33.4953 47.884 33.797 48.1408 34.0153 48.4811C34.2336 48.8213 34.3427 49.2419 34.3427 49.7426C34.3427 50.2305 34.2304 50.6478 34.0057 50.9945C33.781 51.3348 33.4793 51.5916 33.1005 51.7649L34.7376 54.625H33.062L31.29 51.4567L32.253 52.0249H30.5485V54.625H29.0559ZM30.5485 50.7249H31.8101C32.0219 50.7249 32.2049 50.6831 32.359 50.5997C32.5131 50.5162 32.6318 50.4007 32.7153 50.253C32.8052 50.1053 32.8501 49.9352 32.8501 49.7426C32.8501 49.5436 32.8052 49.3703 32.7153 49.2226C32.6318 49.0749 32.5131 48.9594 32.359 48.8759C32.2049 48.7925 32.0219 48.7507 31.8101 48.7507H30.5485V50.7249ZM35.5753 54.625V47.4507H37.0679V53.325H40.1014V54.625H35.5753Z" fill="white"/>
<path d="M22.5628 26.1403C20.8886 24.4662 18.2059 24.4155 16.4707 25.9881L16.3109 26.1403L13.8101 28.6411C12.0836 30.3675 12.0836 33.1665 13.8101 34.8929C15.4842 36.5671 18.1669 36.6178 19.9021 35.0451L20.062 34.8929L21.9375 33.0174C22.2829 32.6721 22.2829 32.1123 21.9375 31.767C21.6188 31.4483 21.1174 31.4238 20.7705 31.6935L20.6872 31.767L18.8116 33.6426C17.7757 34.6784 16.0963 34.6784 15.0605 33.6426C14.0661 32.6482 14.0263 31.0606 14.9412 30.0188L15.0605 29.8914L17.5612 27.3907C18.5971 26.3548 20.2765 26.3548 21.3123 27.3907C21.6576 27.736 22.2174 27.736 22.5627 27.3907C22.908 27.0454 22.908 26.4856 22.5628 26.1403ZM28.1896 20.5136C26.5155 18.8395 23.8327 18.7887 22.0975 20.3614L21.9376 20.5136L20.0621 22.3891C19.7168 22.7344 19.7168 23.2942 20.0621 23.6395C20.3808 23.9583 20.8823 23.9828 21.2292 23.7131L21.3125 23.6395L23.188 21.7639C24.2239 20.7281 25.9033 20.7281 26.9392 21.7639C27.9336 22.7584 27.9734 24.3459 27.0585 25.3878L26.9392 25.5151L24.4384 28.0159C23.4026 29.0518 21.7231 29.0517 20.6873 28.0159C20.342 27.6705 19.7822 27.6705 19.4369 28.0159C19.0915 28.3611 19.0916 28.921 19.4369 29.2663C21.111 30.9403 23.7937 30.9911 25.5289 29.4184L25.6888 29.2663L28.1896 26.7655C29.916 25.0391 29.916 22.24 28.1896 20.5136Z" fill="#00A944"/>
</svg>
