<svg width="20" height="21" viewBox="0 0 20 21" fill="none" xmlns="http://www.w3.org/2000/svg">
<g id="material-symbols:play-circle-outline">
<path id="Vector" d="M7.99988 14.3048L13.5998 10.7049L7.99988 7.10499V14.3048ZM9.99984 18.7047C8.89319 18.7047 7.85321 18.4946 6.8799 18.0744C5.90659 17.6541 5.05994 17.0842 4.33995 16.3648C3.61997 15.6448 3.05011 14.7982 2.63039 13.8248C2.21066 12.8515 2.00053 11.8116 2 10.7049C2 9.59827 2.21013 8.55829 2.63039 7.58498C3.05065 6.61166 3.6205 5.76502 4.33995 5.04503C5.05994 4.32504 5.90659 3.75519 6.8799 3.33547C7.85321 2.91574 8.89319 2.70561 9.99984 2.70508C11.1065 2.70508 12.1465 2.91521 13.1198 3.33547C14.0931 3.75572 14.9397 4.32558 15.6597 5.04503C16.3797 5.76502 16.9498 6.61166 17.3701 7.58498C17.7903 8.55829 18.0002 9.59827 17.9997 10.7049C17.9997 11.8116 17.7895 12.8515 17.3693 13.8248C16.949 14.7982 16.3792 15.6448 15.6597 16.3648C14.9397 17.0848 14.0931 17.6549 13.1198 18.0752C12.1465 18.4954 11.1065 18.7053 9.99984 18.7047ZM9.99984 17.1048C11.7865 17.1048 13.2998 16.4848 14.5397 15.2448C15.7797 14.0048 16.3997 12.4915 16.3997 10.7049C16.3997 8.91828 15.7797 7.40498 14.5397 6.16501C13.2998 4.92503 11.7865 4.30505 9.99984 4.30505C8.21321 4.30505 6.6999 4.92503 5.45993 6.16501C4.21995 7.40498 3.59997 8.91828 3.59997 10.7049C3.59997 12.4915 4.21995 14.0048 5.45993 15.2448C6.6999 16.4848 8.21321 17.1048 9.99984 17.1048Z" fill="#0E0E0E"/>
</g>
</svg>
