<svg width="51" height="60" viewBox="0 0 51 60" fill="none" xmlns="http://www.w3.org/2000/svg">
<g opacity="0.3">
<path opacity="0.6" d="M35.4275 12.31C34.0605 12.3087 32.7498 11.7652 31.7829 10.7988C30.8161 9.83244 30.272 8.52201 30.27 7.155V0H7.22748C5.44323 0 3.73208 0.708793 2.47043 1.97044C1.20878 3.23209 0.5 4.94325 0.5 6.72749V47.2825C0.501988 49.0652 1.21173 50.7742 2.47324 52.0338C3.73474 53.2935 5.44476 54.0007 7.22748 54H34.8775C36.6617 54 38.3729 53.2912 39.6345 52.0296C40.8962 50.7679 41.605 49.0568 41.605 47.2725V12.31H35.4275Z" fill="#FF9908"/>
</g>
<path d="M41.6045 12.31H35.427C34.06 12.3087 32.7493 11.7652 31.7825 10.7988C30.8156 9.83244 30.2715 8.52201 30.2695 7.155V0L41.6045 12.31Z" fill="#FF9908"/>
<path d="M46.4859 42.6504H15.2259C13.0085 42.6504 11.2109 44.448 11.2109 46.6654V55.9854C11.2109 58.2028 13.0085 60.0004 15.2259 60.0004H46.4859C48.7034 60.0004 50.5009 58.2028 50.5009 55.9854V46.6654C50.5009 44.448 48.7034 42.6504 46.4859 42.6504Z" fill="#FF9908"/>
<path d="M17.8623 54.625L15.4067 47.4507H17.0438L18.8928 53.2094H18.5653L20.4143 47.4507H22.0514L19.5957 54.625H17.8623ZM22.8884 54.625V47.4507H24.381V54.625H22.8884ZM25.7495 54.625V47.4507H28.0896C28.8664 47.4507 29.5405 47.6048 30.1119 47.9129C30.6833 48.2211 31.1262 48.6448 31.4408 49.1841C31.7554 49.7234 31.9127 50.3397 31.9127 51.033C31.9127 51.7264 31.7554 52.3459 31.4408 52.8916C31.1262 53.4309 30.6833 53.8546 30.1119 54.1628C29.5405 54.4709 28.8664 54.625 28.0896 54.625H25.7495ZM27.2422 53.325H28.1281C28.5968 53.325 29.0012 53.2319 29.3415 53.0457C29.6817 52.8531 29.945 52.5867 30.1311 52.2464C30.3237 51.8997 30.42 51.4953 30.42 51.033C30.42 50.5644 30.3237 50.1599 30.1311 49.8197C29.945 49.4794 29.6817 49.2162 29.3415 49.03C29.0012 48.8438 28.5968 48.7507 28.1281 48.7507H27.2422V53.325ZM32.9648 54.625V47.4507H37.7894V48.7507H34.4575V50.3782H37.5968V51.6782H34.4575V53.325H37.7894V54.625H32.9648ZM42.3239 54.7406C41.7846 54.7406 41.2838 54.6475 40.8216 54.4613C40.3594 54.2751 39.9549 54.0151 39.6082 53.6813C39.268 53.341 39.0015 52.9462 38.8089 52.4968C38.6163 52.0474 38.52 51.5595 38.52 51.033C38.52 50.5066 38.6131 50.0187 38.7993 49.5693C38.9919 49.1199 39.2583 48.7283 39.5986 48.3944C39.9453 48.0606 40.3497 47.8006 40.812 47.6144C41.2742 47.4282 41.7782 47.3351 42.3239 47.3351C42.8696 47.3351 43.3735 47.4282 43.8358 47.6144C44.298 47.8006 44.6993 48.0606 45.0395 48.3944C45.3862 48.7283 45.6526 49.1199 45.8388 49.5693C46.0314 50.0187 46.1277 50.5066 46.1277 51.033C46.1277 51.5595 46.0314 52.0474 45.8388 52.4968C45.6462 52.9462 45.3766 53.341 45.0299 53.6813C44.6896 54.0151 44.2884 54.2751 43.8261 54.4613C43.3639 54.6475 42.8631 54.7406 42.3239 54.7406ZM42.3239 53.3924C42.6513 53.3924 42.953 53.3346 43.2291 53.219C43.5116 53.1035 43.7587 52.943 43.9706 52.7375C44.1824 52.5257 44.3462 52.2753 44.4617 51.9864C44.5773 51.6975 44.6351 51.3797 44.6351 51.033C44.6351 50.6863 44.5773 50.3718 44.4617 50.0893C44.3462 49.8004 44.1824 49.55 43.9706 49.3382C43.7587 49.1263 43.5116 48.9658 43.2291 48.8567C42.953 48.7411 42.6513 48.6833 42.3239 48.6833C41.9964 48.6833 41.6915 48.7411 41.409 48.8567C41.133 48.9658 40.889 49.1263 40.6771 49.3382C40.4653 49.55 40.3016 49.8004 40.186 50.0893C40.0705 50.3718 40.0127 50.6863 40.0127 51.033C40.0127 51.3797 40.0705 51.6975 40.186 51.9864C40.3016 52.2753 40.4653 52.5257 40.6771 52.7375C40.889 52.943 41.133 53.1035 41.409 53.219C41.6915 53.3346 41.9964 53.3924 42.3239 53.3924Z" fill="white"/>
<path d="M21.0121 37.4578C18.2847 37.4545 15.67 36.3696 13.7414 34.441C11.8129 32.5124 10.7279 29.8977 10.7246 27.1703C10.7279 24.4429 11.8129 21.8282 13.7414 19.8996C15.67 17.971 18.2847 16.8861 21.0121 16.8828C23.7395 16.8861 26.3543 17.971 28.2828 19.8996C30.2114 21.8282 31.2963 24.4429 31.2996 27.1703C31.2963 29.8977 30.2114 32.5124 28.2828 34.441C26.3543 36.3696 23.7395 37.4545 21.0121 37.4578ZM21.0121 18.6853C18.763 18.6893 16.6071 19.5845 15.0167 21.1749C13.4263 22.7653 12.5311 24.9212 12.5271 27.1703C12.5271 29.422 13.4206 31.5818 15.0114 33.1754C16.6022 34.769 18.7604 35.6663 21.0121 35.6703C23.2639 35.6663 25.422 34.769 27.0128 33.1754C28.6037 31.5818 29.4971 29.422 29.4971 27.1703C29.4932 24.9212 28.5979 22.7653 27.0075 21.1749C25.4172 19.5845 23.2613 18.6893 21.0121 18.6853Z" fill="#FF9908"/>
<path d="M23.1739 26.2176L19.95 24.3581C19.7831 24.2617 19.5939 24.211 19.4012 24.2109C19.2085 24.2109 19.0192 24.2615 18.8523 24.3578C18.6854 24.454 18.5467 24.5925 18.4502 24.7593C18.3538 24.9261 18.3029 25.1154 18.3027 25.308V29.0305C18.3029 29.2232 18.3538 29.4124 18.4502 29.5792C18.5467 29.746 18.6854 29.8845 18.8523 29.9807C19.0192 30.077 19.2085 30.1276 19.4012 30.1276C19.5939 30.1275 19.7831 30.0768 19.95 29.9805L23.1739 28.1176C23.3403 28.021 23.4785 27.8825 23.5745 27.7157C23.6705 27.549 23.7211 27.36 23.7211 27.1676C23.7211 26.9752 23.6705 26.7861 23.5745 26.6194C23.4785 26.4527 23.3403 26.3141 23.1739 26.2176Z" fill="#FF9908"/>
</svg>
