<svg width="27" height="27" viewBox="0 0 27 27" fill="none" xmlns="http://www.w3.org/2000/svg">
<path d="M24.543 0H2.457C1.10099 0 0 1.10098 0 2.45683V24.5458C0 25.902 1.10099 27 2.457 27H24.543C25.899 27 27 25.9019 27 24.5458V2.45683C27 1.10098 25.899 0 24.543 0ZM21.486 15.675C20.271 16.8958 18.588 17.649 16.731 17.649H16.566V7.84483C16.566 7.56299 16.311 7.34678 16.032 7.39189L10.011 8.34902V11.439L12.471 11.1448V20.7688C12.153 22.4698 10.659 23.7601 8.86199 23.7601C7.84799 23.7601 6.93299 23.349 6.27001 22.686C5.607 22.023 5.196 21.1049 5.196 20.0938L5.18699 6.21592C5.18699 5.11787 6.081 4.21787 7.17899 4.21787L16.731 4.2C20.445 4.2 23.457 7.20586 23.457 10.9198C23.457 12.7769 22.707 14.4601 21.486 15.675Z" fill="#002C59"/>
</svg>
