<svg width="18" height="17" viewBox="0 0 18 17" fill="none" xmlns="http://www.w3.org/2000/svg">
<path id="Union" fill-rule="evenodd" clip-rule="evenodd" d="M17.2406 13.8904H17.2403C17.2395 15.4436 15.9801 16.7025 14.4267 16.7025C12.8729 16.7025 11.6132 15.4428 11.6132 13.8889C11.6132 12.3351 12.8729 11.0754 14.4267 11.0754C14.5765 11.0754 14.7236 11.0871 14.8671 11.1096V4.29658C14.8671 3.97522 14.7394 3.66702 14.5122 3.43979C14.2849 3.21255 13.9767 3.08489 13.6554 3.08489H7.58609C7.26453 3.08489 6.95613 3.21248 6.72855 3.43965C6.50097 3.66683 6.37281 3.97502 6.37224 4.29658V13.6004C6.3819 13.6953 6.38685 13.7915 6.38685 13.8889C6.38685 15.4428 5.12719 16.7025 3.57331 16.7025C2.01943 16.7025 0.759766 15.4428 0.759766 13.8889C0.759766 12.3351 2.01943 11.0754 3.57331 11.0754C3.71415 11.0754 3.85258 11.0857 3.98788 11.1057V3.4859C3.98845 2.7487 4.28171 2.04188 4.80319 1.52081C5.32467 0.999732 6.03173 0.707031 6.76893 0.707031H14.4444C15.1814 0.707031 15.8882 0.999802 16.4094 1.52094C16.9305 2.04208 17.2233 2.7489 17.2233 3.4859L17.2406 13.8904Z" fill="black"/>
</svg>
