<svg width="24" height="24" viewBox="0 0 24 24" fill="none" xmlns="http://www.w3.org/2000/svg" id="CallIcon">
<path fill-rule="evenodd" clip-rule="evenodd" d="M10.8734 2.51899C7.59139 2.51899 5.04456 4.57468 4.61013 7.07595H6.82278C7.02421 7.07595 7.21739 7.15597 7.35983 7.2984C7.50226 7.44083 7.58228 7.63401 7.58228 7.83544V14.924C7.58228 15.1255 7.50226 15.3187 7.35983 15.4611C7.21739 15.6035 7.02421 15.6835 6.82278 15.6835H3.78481C3.04623 15.6835 2.33791 15.3901 1.81565 14.8679C1.2934 14.3456 1 13.6373 1 12.8987V9.86076C0.999872 9.24821 1.20171 8.65271 1.57426 8.16647C1.94681 7.68024 2.46928 7.3304 3.06076 7.17114C3.44759 3.62278 6.89772 1 10.8734 1C14.8491 1 18.2992 3.62278 18.6861 7.17114C19.2776 7.3304 19.8 7.68024 20.1726 8.16647C20.5451 8.65271 20.747 9.24821 20.7468 9.86076V12.8987C20.747 13.5131 20.544 14.1104 20.1695 14.5974C19.7949 15.0844 19.2698 15.4339 18.6759 15.5914C18.515 16.7404 17.9441 17.7926 17.0685 18.5539C16.1929 19.3152 15.0717 19.7344 13.9114 19.7342H12.7519C12.5756 20.1699 12.2533 20.5307 11.8402 20.7549C11.4271 20.979 10.9489 21.0525 10.4875 20.9627C10.0262 20.8729 9.61038 20.6255 9.31146 20.2628C9.01253 19.9001 8.84906 19.4447 8.84906 18.9747C8.84906 18.5047 9.01253 18.0493 9.31146 17.6866C9.61038 17.3239 10.0262 17.0764 10.4875 16.9867C10.9489 16.8969 11.4271 16.9704 11.8402 17.1945C12.2533 17.4186 12.5756 17.7795 12.7519 18.2152H13.9114C14.6523 18.2154 15.3716 17.9655 15.9529 17.5061C16.5342 17.0466 16.9434 16.4045 17.1144 15.6835H14.924C14.7226 15.6835 14.5294 15.6035 14.387 15.4611C14.2446 15.3187 14.1646 15.1255 14.1646 14.924V7.83544C14.1646 7.63401 14.2446 7.44083 14.387 7.2984C14.5294 7.15597 14.7226 7.07595 14.924 7.07595H17.1367C16.7023 4.57468 14.1554 2.51899 10.8734 2.51899ZM3.78481 8.59493C3.08608 8.59493 2.51899 9.16202 2.51899 9.86076V12.8987C2.51899 13.5975 3.08608 14.1646 3.78481 14.1646H6.06329V8.59493H3.78481ZM19.2278 9.86076C19.2278 9.16202 18.6608 8.59493 17.962 8.59493H15.6835V14.1646H17.962C18.6608 14.1646 19.2278 13.5975 19.2278 12.8987V9.86076Z" fill="CurrentColor"/>
</svg>
