<svg width="35" height="35" viewBox="0 0 35 35" fill="none" xmlns="http://www.w3.org/2000/svg">
<g id="mingcute:pdf-fill">
<g id="Group">
<path id="Vector" fill-rule="evenodd" clip-rule="evenodd" d="M17.5007 2.91602V12.3952C17.5007 12.9753 17.7311 13.5317 18.1414 13.942C18.5516 14.3522 19.108 14.5827 19.6882 14.5827H29.1673V29.166C29.1673 29.9396 28.86 30.6814 28.313 31.2284C27.7661 31.7754 27.0242 32.0827 26.2507 32.0827H8.75065C7.9771 32.0827 7.23524 31.7754 6.68826 31.2284C6.14128 30.6814 5.83398 29.9396 5.83398 29.166V5.83268C5.83398 5.05913 6.14128 4.31727 6.68826 3.77029C7.23524 3.22331 7.9771 2.91602 8.75065 2.91602H17.5007ZM16.0584 17.2777C15.7093 19.4988 14.5477 21.5111 12.799 22.9244C11.5054 23.9685 12.6882 26.0175 14.2398 25.421C16.3381 24.6129 18.6617 24.6129 20.76 25.421C22.3117 26.0189 23.4944 23.97 22.2009 22.9244C20.4521 21.5111 19.2906 19.4988 18.9415 17.2777C18.6834 15.6356 16.3165 15.6341 16.0584 17.2777ZM17.5007 20.8579L18.6761 22.8908H16.3282L17.5007 20.8579ZM20.4173 2.97872C20.9698 3.09591 21.4765 3.371 21.8757 3.7706L28.3127 10.2077C28.7123 10.6069 28.9874 11.1135 29.1046 11.666H20.4173V2.97872Z" fill="#64748B"/>
</g>
</g>
</svg>
