<svg xmlns="http://www.w3.org/2000/svg" id="EditIcon" width="20" height="20" viewBox="0 0 20 20" fill="none">
<path d="M5.5 5.33203H4.66667C4.22464 5.33203 3.80072 5.50763 3.48816 5.82019C3.17559 6.13275 3 6.55667 3 6.9987V14.4987C3 14.9407 3.17559 15.3646 3.48816 15.6772C3.80072 15.9898 4.22464 16.1654 4.66667 16.1654H12.1667C12.6087 16.1654 13.0326 15.9898 13.3452 15.6772C13.6577 15.3646 13.8333 14.9407 13.8333 14.4987V13.6654" stroke="currentColor" stroke-width="1.25" stroke-linecap="round" stroke-linejoin="round"/>
<path d="M12.9993 3.66676L15.4993 6.16676M16.6535 4.98759C16.9817 4.65938 17.1661 4.21424 17.1661 3.75009C17.1661 3.28594 16.9817 2.84079 16.6535 2.51259C16.3253 2.18438 15.8802 2 15.416 2C14.9519 2 14.5067 2.18438 14.1785 2.51259L7.16602 9.50009V12.0001H9.66602L16.6535 4.98759Z" stroke="currentColor" stroke-width="1.25" stroke-linecap="round" stroke-linejoin="round"/>
</svg>
