<svg width="51" height="61" viewBox="0 0 51 61" fill="none" xmlns="http://www.w3.org/2000/svg">
<g opacity="0.3">
<path opacity="0.6" d="M35.3321 13.2085C33.9653 13.2071 32.655 12.6636 31.6885 11.6972C30.7221 10.7308 30.1786 9.42039 30.1773 8.05366V0.896484H7.14323C5.35906 0.896484 3.64798 1.60526 2.38638 2.86686C1.12478 4.12846 0.416016 5.83951 0.416016 7.62368V48.177C0.418665 49.9594 1.12859 51.668 2.3899 52.9274C3.65121 54.1868 5.36079 54.8942 7.14323 54.8942H34.7946C36.577 54.8942 38.2866 54.1868 39.5479 52.9274C40.8092 51.668 41.5191 49.9594 41.5218 48.177V13.2085H35.3321Z" fill="#FF3E4C"/>
</g>
<path d="M41.5223 13.2085H35.3325C33.9658 13.2071 32.6554 12.6636 31.689 11.6972C30.7226 10.7308 30.1791 9.42039 30.1777 8.05366V0.896484L41.5223 13.2085Z" fill="#FF3E4C"/>
<path d="M46.3985 43.5469H15.1398C12.9225 43.5469 11.125 45.3444 11.125 47.5617V56.8813C11.125 59.0987 12.9225 60.8962 15.1398 60.8962H46.3985C48.6159 60.8962 50.4134 59.0987 50.4134 56.8813V47.5617C50.4134 45.3444 48.6159 43.5469 46.3985 43.5469Z" fill="#FF3E4C"/>
<path d="M20.4398 19.6191V24.9991C20.4398 25.6444 20.9322 26.1748 21.5618 26.2349L21.6814 26.2406H27.0613V34.5175C27.0613 35.3902 26.3861 36.1051 25.5295 36.1683L25.406 36.1729H15.4737C14.6011 36.1729 13.8861 35.4976 13.8229 34.641L13.8184 34.5175V21.2745C13.8184 20.4018 14.4936 19.6869 15.3502 19.6237L15.4737 19.6191H20.4398ZM22.0952 19.655C22.3619 19.7115 22.6117 19.8332 22.8215 20.0107L22.9229 20.104L26.5765 23.7576C26.7722 23.9533 26.9139 24.193 26.9918 24.4534L27.0254 24.5853H22.0952V19.655Z" fill="#FF3E4C"/>
<path d="M19.8245 55.5703V48.5786H24.6107V49.8456H21.2791V51.6193H24.1415V52.8862H21.2791V55.5703H19.8245ZM26.8341 55.5703V48.5786H28.2888V55.5703H26.8341ZM31.0302 55.5703V48.5786H32.4848V54.3034H35.4411V55.5703H31.0302ZM37.6641 55.5703V48.5786H42.3659V49.8456H39.1187V51.4316H42.1782V52.6986H39.1187V54.3034H42.3659V55.5703H37.6641Z" fill="white"/>
</svg>
