<svg width="192" height="105" viewBox="0 0 192 105" fill="none" xmlns="http://www.w3.org/2000/svg">
<g clip-path="url(#clip0_10367_23143)">
<path d="M116.994 0.723663H75.0099C72.4286 0.723663 70.3379 2.81324 70.3379 5.39447V47.3797C70.3379 49.961 72.4286 52.0505 75.0099 52.0505H116.994C119.575 52.0505 121.666 49.961 121.666 47.3797V5.39447C121.666 2.81324 119.575 0.723663 116.994 0.723663ZM111.191 30.5257C108.866 32.8506 105.666 34.2798 102.146 34.2798H101.826V15.6341C101.826 15.1007 101.357 14.6966 100.823 14.782L89.3672 16.5945V22.4611L94.0392 21.9069V40.2111C93.4418 43.4527 90.6045 45.886 87.1912 45.886C85.2499 45.886 83.522 45.1173 82.2632 43.859C81.0045 42.5798 80.2152 40.8506 80.2152 38.9319L80.194 12.5424C80.194 10.4507 81.9006 8.7445 83.9912 8.7445L102.146 8.70075C109.207 8.70075 114.924 14.4195 114.924 21.4799C114.924 25.0215 113.495 28.2215 111.191 30.5257Z" fill="#002C59"/>
<path d="M9.32263 72.4463V70.013H0V85.1171H3.02928V78.738H7.85062V76.3276H3.02928V72.4463L9.32263 72.4463Z" fill="#002C59"/>
<path d="M12.3301 70.013V85.1171H15.3807V70.013H12.3301Z" fill="#002C59"/>
<path d="M26.9239 78.9942C28.0547 78.6755 28.9079 78.1421 29.484 77.3317C30.06 76.5421 30.3586 75.6234 30.3586 74.6422C30.3586 73.7671 30.1453 72.9796 29.7399 72.2963C29.3346 71.5922 28.716 71.038 27.8839 70.6109C27.0733 70.2047 26.0705 70.013 24.8972 70.013H19.2227V85.1171H22.2519V79.2296H23.6812L27.0306 85.1171H30.5292L26.9239 78.9942ZM24.7906 76.9463H22.252V72.5088H24.7906C25.6226 72.5088 26.2199 72.7005 26.6253 73.0859C27.0306 73.4692 27.244 74.0026 27.244 74.7067C27.244 75.4109 27.0306 75.9651 26.6253 76.3505C26.2199 76.7547 25.6227 76.9463 24.7906 76.9463Z" fill="#002C59"/>
<path d="M43.8608 78.4609C43.4127 77.8859 42.8794 77.4588 42.2608 77.1609C41.6421 76.8838 40.8315 76.5838 39.8501 76.3067C39.1461 76.0942 38.5702 75.9005 38.1862 75.7317C37.7808 75.5609 37.4608 75.3463 37.1834 75.0901C36.9274 74.813 36.7781 74.4713 36.7781 74.0672C36.7781 73.4901 36.9702 73.0651 37.3114 72.7443C37.6741 72.4463 38.1435 72.2963 38.7407 72.2963C39.4021 72.2963 39.9568 72.4672 40.3621 72.8088C40.7888 73.1505 41.0021 73.5755 41.0234 74.088H44.3728C44.2661 72.7443 43.7328 71.6776 42.7514 70.9318C41.7702 70.163 40.5114 69.7797 38.9542 69.7797C37.9088 69.7797 36.9915 69.9713 36.1808 70.313C35.3702 70.6755 34.7514 71.1859 34.3035 71.8484C33.8555 72.5088 33.6208 73.2776 33.6208 74.1734C33.6208 75.1338 33.8341 75.9005 34.2822 76.4567C34.7302 77.0317 35.2422 77.4588 35.8608 77.7359C36.4794 78.0338 37.2687 78.313 38.2501 78.5901C38.9755 78.8026 39.5514 78.9942 39.9568 79.1442C40.3621 79.3151 40.7035 79.5505 40.9809 79.8276C41.2582 80.1255 41.3862 80.488 41.3862 80.9359C41.3862 81.4901 41.1941 81.938 40.7888 82.2588C40.3835 82.6005 39.8288 82.7713 39.1249 82.7713C38.4209 82.7713 37.8875 82.6005 37.4822 82.238C37.0982 81.8755 36.8635 81.3838 36.8208 80.765H33.5781C33.5995 81.6838 33.8555 82.4942 34.3461 83.1754C34.8369 83.8379 35.4982 84.3713 36.3302 84.7338C37.1834 85.0963 38.1435 85.2671 39.1888 85.2671C40.2982 85.2671 41.2582 85.0525 42.0687 84.6484C42.8794 84.2421 43.4982 83.6879 43.9035 82.9838C44.3302 82.3005 44.5435 81.5546 44.5435 80.7442C44.5435 79.8046 44.3088 79.038 43.8608 78.4609Z" fill="#002C59"/>
<path d="M47.211 70.013V72.4463H51.243V85.1171H54.2722V72.4463H58.3043V70.013H47.211Z" fill="#002C59"/>
<path d="M77.8031 72.2755C77.3979 71.5713 76.7791 71.0172 75.9471 70.6109C75.1364 70.2047 74.1338 70.013 72.9605 70.013H67.3926V85.1171H70.4219V79.315H72.9605C74.1979 79.315 75.2432 79.1005 76.0539 78.6525C76.8645 78.2275 77.4618 77.6505 77.8458 76.9463C78.2298 76.2422 78.4218 75.4963 78.4218 74.6859C78.4218 73.7901 78.2084 72.9796 77.8031 72.2755ZM74.6885 76.2859C74.2832 76.6692 73.6646 76.8609 72.8325 76.8609H70.4219V72.4671H72.8325C74.4751 72.4671 75.3071 73.213 75.3071 74.6859C75.3071 75.3671 75.0939 75.9005 74.6885 76.2859Z" fill="#002C59"/>
<path d="M89.1078 78.9942C90.2597 78.6755 91.1131 78.1421 91.689 77.3317C92.2651 76.5421 92.5638 75.6234 92.5638 74.6422C92.5638 73.7671 92.3503 72.9796 91.945 72.2963C91.5185 71.5922 90.9211 71.038 90.089 70.6109C89.2571 70.2047 88.2757 70.013 87.1024 70.013H81.4277V85.1171H84.4571V79.2296H85.8864L89.2144 85.1171H92.7343L89.1078 78.9942ZM86.9958 76.9463H84.4572V72.5088H86.9958C87.8064 72.5088 88.4251 72.7005 88.8305 73.0859C89.2358 73.4692 89.4491 74.0026 89.4491 74.7067C89.4491 75.4109 89.2358 75.9651 88.8305 76.3505C88.4251 76.7547 87.8064 76.9463 86.9958 76.9463Z" fill="#002C59"/>
<path d="M96.1719 70.013V85.1171H99.2012V70.013H96.1719Z" fill="#002C59"/>
<path d="M112.961 69.9922V80.3817L106.092 69.9922H103.062V85.1171H106.092V74.7505L112.961 85.1171H115.99V69.9922H112.961Z" fill="#002C59"/>
<path d="M128.919 81.9817C128.3 82.365 127.575 82.5358 126.743 82.5358C125.868 82.5358 125.079 82.3442 124.396 81.9171C123.713 81.5129 123.18 80.9358 122.796 80.1671C122.412 79.4213 122.22 78.5254 122.22 77.5442C122.22 76.5192 122.412 75.6463 122.796 74.8984C123.18 74.1525 123.713 73.5546 124.396 73.1505C125.079 72.7442 125.868 72.5317 126.743 72.5317C127.575 72.5317 128.3 72.7234 128.919 73.0859C129.559 73.4484 130.028 73.9817 130.391 74.7067H133.868C133.356 73.1713 132.481 71.9755 131.201 71.1005C129.943 70.2484 128.449 69.8005 126.764 69.8005C125.313 69.8005 124.012 70.1421 122.86 70.8026C121.708 71.4421 120.791 72.3609 120.108 73.5338C119.447 74.7275 119.105 76.0505 119.105 77.5442C119.105 79.0171 119.447 80.3608 120.108 81.5129C120.791 82.6858 121.708 83.6025 122.86 84.265C124.012 84.9254 125.313 85.2463 126.764 85.2463C128.471 85.2463 129.964 84.8192 131.223 83.965C132.481 83.09 133.356 81.8962 133.868 80.3609H130.391C130.028 81.0858 129.559 81.6191 128.919 81.9817Z" fill="#002C59"/>
<path d="M137.322 70.013V85.1171H140.373V70.013H137.322Z" fill="#002C59"/>
<path d="M154.624 72.2755C154.218 71.5713 153.6 71.0172 152.768 70.6109C151.936 70.2047 150.954 70.013 149.781 70.013H144.213V85.1171H147.242V79.315H149.781C151.018 79.315 152.042 79.1005 152.874 78.6525C153.685 78.2275 154.282 77.6505 154.666 76.9463C155.05 76.2422 155.242 75.4963 155.242 74.6859C155.242 73.7901 155.029 72.9796 154.624 72.2755ZM151.509 76.2859C151.104 76.6692 150.485 76.8609 149.653 76.8609H147.242V72.4671H149.653C151.296 72.4671 152.128 73.213 152.128 74.6859C152.128 75.3671 151.914 75.9005 151.509 76.2859Z" fill="#002C59"/>
<path d="M161.281 82.7067V70.013H158.252V85.1171H166.252V82.7067H161.281Z" fill="#002C59"/>
<path d="M177.815 72.4463V69.9922H169.047V85.1171H177.815V82.6421H172.076V78.6317H177.175V76.2422H172.076V72.4463L177.815 72.4463Z" fill="#002C59"/>
<path d="M191.337 78.4609C190.889 77.8859 190.356 77.4588 189.716 77.1609C189.097 76.8838 188.308 76.5838 187.327 76.3067C186.601 76.0942 186.047 75.9005 185.641 75.7317C185.257 75.5609 184.916 75.3463 184.639 75.0901C184.383 74.813 184.255 74.4713 184.255 74.0672C184.255 73.4901 184.425 73.0651 184.788 72.7443C185.129 72.4463 185.599 72.2963 186.196 72.2963C186.878 72.2963 187.412 72.4672 187.839 72.8088C188.244 73.1505 188.457 73.5755 188.5 74.088H191.828C191.721 72.7443 191.188 71.6776 190.206 70.9318C189.247 70.163 187.967 69.7797 186.409 69.7797C185.364 69.7797 184.447 69.9713 183.636 70.313C182.825 70.6755 182.207 71.1859 181.759 71.8484C181.311 72.5088 181.097 73.2776 181.097 74.1734C181.097 75.1338 181.311 75.9005 181.737 76.4567C182.185 77.0317 182.719 77.4588 183.337 77.7359C183.935 78.0338 184.745 78.313 185.727 78.5901C186.452 78.8026 187.007 78.9942 187.412 79.1442C187.839 79.3151 188.18 79.5505 188.457 79.8276C188.713 80.1255 188.863 80.488 188.863 80.9359C188.863 81.4901 188.649 81.938 188.244 82.2588C187.839 82.6005 187.284 82.7713 186.58 82.7713C185.897 82.7713 185.343 82.6005 184.959 82.238C184.553 81.8755 184.34 81.3838 184.297 80.765H181.033C181.055 81.6838 181.311 82.4942 181.801 83.1754C182.292 83.8379 182.953 84.3713 183.807 84.7338C184.639 85.0963 185.599 85.2671 186.644 85.2671C187.753 85.2671 188.713 85.0525 189.524 84.6484C190.334 84.2421 190.953 83.6879 191.38 82.9838C191.785 82.3005 191.999 81.5546 191.999 80.7442C191.999 79.8046 191.785 79.038 191.337 78.4609Z" fill="#002C59"/>
<path d="M36.3741 96.04C35.9261 95.2296 35.2648 94.6109 34.3901 94.163C33.5367 93.715 32.5128 93.5005 31.3394 93.5005H27.9688V104.317H31.3394C32.5128 104.317 33.5367 104.105 34.3901 103.657C35.2648 103.23 35.9261 102.611 36.3741 101.8C36.8434 100.99 37.0781 100.03 37.0781 98.9192C37.0781 97.8317 36.8434 96.8713 36.3741 96.04ZM34.5394 102.034C33.7928 102.782 32.7261 103.144 31.3394 103.144H29.3768V94.6525H31.3394C32.7261 94.6525 33.7928 95.0379 34.5181 95.7838C35.2648 96.5317 35.6274 97.5754 35.6274 98.9192C35.6274 100.265 35.2648 101.288 34.5394 102.034Z" fill="#002C59"/>
<path d="M45.3768 94.6525V93.4796H39.5527V104.317H45.3768V103.144H40.9608V99.4317H44.9074V98.2588H40.9608V94.6525L45.3768 94.6525Z" fill="#002C59"/>
<path d="M55.2096 93.4796V102.077L49.5349 93.4796H48.127V104.317H49.5349V95.6983L55.2096 104.317H56.6175V93.4796H55.2096Z" fill="#002C59"/>
<path d="M58.9864 93.5005V94.6525H61.9303V104.317H63.3596V94.6525H66.3036V93.5005H58.9864Z" fill="#002C59"/>
<path d="M73.5155 93.565H71.8728L67.9688 104.317H69.4621L70.3367 101.907H75.03L75.9048 104.317H77.3981L73.5155 93.565ZM70.7208 100.755L72.6834 95.2942L74.6461 100.755H70.7208Z" fill="#002C59"/>
<path d="M81.1307 103.165V93.5005H79.7227V104.317H84.9066V103.165H81.1307Z" fill="#002C59"/>
<path d="M91.1348 93.5005V94.6525H94.1001V104.317H95.5082V94.6525H98.4522V93.5005H91.1348Z" fill="#002C59"/>
<path d="M105.473 99.7734C106.326 99.6025 106.966 99.2192 107.414 98.6421C107.841 98.0879 108.054 97.4275 108.054 96.6796C108.054 96.0609 107.905 95.5275 107.627 95.0588C107.35 94.5671 106.923 94.2046 106.369 93.9275C105.793 93.6505 105.11 93.5005 104.299 93.5005H100.801V104.317H102.209V99.8796H103.915L106.497 104.317H108.182L105.473 99.7734ZM102.209 98.7504V94.6754H104.299C105.067 94.6754 105.643 94.8463 106.027 95.1859C106.411 95.5505 106.582 96.04 106.582 96.6796C106.582 97.3192 106.39 97.8109 106.006 98.1942C105.643 98.5796 105.067 98.7504 104.299 98.7504H102.209Z" fill="#002C59"/>
<path d="M115.713 93.565H114.07L110.166 104.317H111.659L112.534 101.907H117.249L118.102 104.317H119.595L115.713 93.565ZM112.939 100.755L114.881 95.2942L116.843 100.755H112.939Z" fill="#002C59"/>
<path d="M121.92 93.5005V104.317H123.328V93.5005H121.92Z" fill="#002C59"/>
<path d="M133.438 93.4796V102.077L127.764 93.4796H126.355V104.317H127.764V95.6983L133.438 104.317H134.846V93.4796H133.438Z" fill="#002C59"/>
<path d="M137.877 93.5005V104.317H139.285V93.5005H137.877Z" fill="#002C59"/>
<path d="M149.399 93.4796V102.077L143.724 93.4796H142.316V104.317H143.724V95.6983L149.399 104.317H150.807V93.4796H149.399Z" fill="#002C59"/>
<path d="M158.205 98.4713V99.6234H162.515C162.408 100.713 162.003 101.544 161.32 102.184C160.637 102.823 159.784 103.123 158.718 103.123C157.971 103.123 157.288 102.953 156.691 102.611C156.072 102.269 155.603 101.78 155.262 101.138C154.92 100.498 154.749 99.7525 154.749 98.8984C154.749 98.0463 154.92 97.2984 155.262 96.6588C155.603 96.0193 156.072 95.5067 156.691 95.1651C157.288 94.8234 157.971 94.6526 158.718 94.6526C159.486 94.6526 160.147 94.8234 160.702 95.1651C161.277 95.5067 161.704 95.9984 162.003 96.638H163.709C163.304 95.5922 162.664 94.8026 161.768 94.2276C160.893 93.6713 159.87 93.3734 158.718 93.3734C157.715 93.3734 156.798 93.6088 155.987 94.0776C155.155 94.5463 154.493 95.2088 154.024 96.0609C153.533 96.8942 153.299 97.8526 153.299 98.8984C153.299 99.9442 153.533 100.905 154.024 101.736C154.493 102.567 155.155 103.23 155.987 103.698C156.798 104.167 157.715 104.403 158.718 104.403C159.677 104.403 160.531 104.19 161.32 103.763C162.088 103.336 162.707 102.738 163.197 102.013C163.667 101.267 163.944 100.457 164.029 99.5609V98.4714L158.205 98.4713Z" fill="#002C59"/>
</g>
<defs>
<clipPath id="clip0_10367_23143">
<rect width="191.999" height="103.679" fill="white" transform="translate(0 0.723694)"/>
</clipPath>
</defs>
</svg>
