<svg width="16" height="16" viewBox="0 0 16 16" fill="none" xmlns="http://www.w3.org/2000/svg">
<path d="M7.33268 8.00008C7.33268 8.36827 7.63116 8.66675 7.99935 8.66675C8.36754 8.66675 8.66602 8.36827 8.66602 8.00008C8.66602 7.63189 8.36754 7.33341 7.99935 7.33341C7.63116 7.33341 7.33268 7.63189 7.33268 8.00008Z" stroke="#09090B" stroke-linecap="round" stroke-linejoin="round"/>
<path d="M7.33268 12.6667C7.33268 13.0349 7.63116 13.3334 7.99935 13.3334C8.36754 13.3334 8.66602 13.0349 8.66602 12.6667C8.66602 12.2986 8.36754 12.0001 7.99935 12.0001C7.63116 12.0001 7.33268 12.2986 7.33268 12.6667Z" stroke="#09090B" stroke-linecap="round" stroke-linejoin="round"/>
<path d="M7.33268 3.33341C7.33268 3.7016 7.63116 4.00008 7.99935 4.00008C8.36754 4.00008 8.66602 3.7016 8.66602 3.33341C8.66602 2.96522 8.36754 2.66675 7.99935 2.66675C7.63116 2.66675 7.33268 2.96522 7.33268 3.33341Z" stroke="#09090B" stroke-linecap="round" stroke-linejoin="round"/>
</svg>
