<svg width="24" height="24" viewBox="0 0 24 24" id="Users" fill="none" xmlns="http://www.w3.org/2000/svg">
<path d="M16.9816 15.521C17.4494 15.2015 17.9981 15.0211 18.5642 15.0004C19.1302 14.9798 19.6906 15.1199 20.1804 15.4044C20.6702 15.689 21.0695 16.1064 21.3319 16.6084C21.5944 17.1104 21.7094 17.6764 21.6636 18.241C20.4638 18.6603 19.1894 18.8235 17.9226 18.72C17.9187 17.5866 17.5923 16.4768 16.9816 15.522C16.4395 14.6718 15.6917 13.972 14.8074 13.4875C13.9231 13.003 12.9309 12.7493 11.9226 12.75C10.9144 12.7495 9.92242 13.0032 9.03832 13.4877C8.15422 13.9723 7.4066 14.6719 6.86459 15.522M17.9216 18.719L17.9226 18.75C17.9226 18.975 17.9106 19.197 17.8856 19.416C16.071 20.4571 14.0147 21.0033 11.9226 21C9.75259 21 7.71559 20.424 5.95959 19.416C5.93388 19.1846 5.92153 18.9519 5.92259 18.719M5.92259 18.719C4.65622 18.8263 3.3825 18.6637 2.18359 18.242C2.13794 17.6776 2.25299 17.1117 2.51542 16.6099C2.77786 16.1081 3.17696 15.6908 3.66659 15.4063C4.15623 15.1218 4.71639 14.9817 5.28231 15.0021C5.84823 15.0226 6.3968 15.2028 6.86459 15.522M5.92259 18.719C5.92618 17.5857 6.25422 16.4769 6.86459 15.522M14.9226 6.75C14.9226 7.54565 14.6065 8.30871 14.0439 8.87132C13.4813 9.43393 12.7182 9.75 11.9226 9.75C11.1269 9.75 10.3639 9.43393 9.80127 8.87132C9.23866 8.30871 8.92259 7.54565 8.92259 6.75C8.92259 5.95435 9.23866 5.19129 9.80127 4.62868C10.3639 4.06607 11.1269 3.75 11.9226 3.75C12.7182 3.75 13.4813 4.06607 14.0439 4.62868C14.6065 5.19129 14.9226 5.95435 14.9226 6.75ZM20.9226 9.75C20.9226 10.0455 20.8644 10.3381 20.7513 10.611C20.6382 10.884 20.4725 11.1321 20.2636 11.341C20.0547 11.5499 19.8066 11.7157 19.5336 11.8287C19.2606 11.9418 18.9681 12 18.6726 12C18.3771 12 18.0845 11.9418 17.8116 11.8287C17.5386 11.7157 17.2905 11.5499 17.0816 11.341C16.8727 11.1321 16.7069 10.884 16.5939 10.611C16.4808 10.3381 16.4226 10.0455 16.4226 9.75C16.4226 9.15326 16.6596 8.58097 17.0816 8.15901C17.5036 7.73705 18.0759 7.5 18.6726 7.5C19.2693 7.5 19.8416 7.73705 20.2636 8.15901C20.6855 8.58097 20.9226 9.15326 20.9226 9.75ZM7.42259 9.75C7.42259 10.0455 7.36439 10.3381 7.25132 10.611C7.13825 10.884 6.97251 11.1321 6.76358 11.341C6.55465 11.5499 6.30661 11.7157 6.03363 11.8287C5.76065 11.9418 5.46807 12 5.17259 12C4.87712 12 4.58454 11.9418 4.31155 11.8287C4.03857 11.7157 3.79053 11.5499 3.5816 11.341C3.37267 11.1321 3.20694 10.884 3.09386 10.611C2.98079 10.3381 2.92259 10.0455 2.92259 9.75C2.92259 9.15326 3.15965 8.58097 3.5816 8.15901C4.00356 7.73705 4.57586 7.5 5.17259 7.5C5.76933 7.5 6.34163 7.73705 6.76358 8.15901C7.18554 8.58097 7.42259 9.15326 7.42259 9.75Z" stroke="currentColor" stroke-width="1.5" stroke-linecap="round" stroke-linejoin="round"/>
</svg>
