<svg width="35" height="35" viewBox="0 0 35 35" fill="none" xmlns="http://www.w3.org/2000/svg">
<g id="lets-icons:video-fill">
<path id="Vector" fill-rule="evenodd" clip-rule="evenodd" d="M17.5 30.625C19.2236 30.625 20.9303 30.2855 22.5227 29.6259C24.1151 28.9663 25.562 27.9995 26.7808 26.7808C27.9995 25.562 28.9663 24.1151 29.6259 22.5227C30.2855 20.9303 30.625 19.2236 30.625 17.5C30.625 15.7764 30.2855 14.0697 29.6259 12.4773C28.9663 10.8849 27.9995 9.43799 26.7808 8.21922C25.562 7.00045 24.1151 6.03367 22.5227 5.37408C20.9303 4.71449 19.2236 4.375 17.5 4.375C14.019 4.375 10.6806 5.75781 8.21922 8.21922C5.75781 10.6806 4.375 14.019 4.375 17.5C4.375 20.981 5.75781 24.3194 8.21922 26.7808C10.6806 29.2422 14.019 30.625 17.5 30.625ZM15.7252 11.6521L23.956 16.2254C24.1833 16.3518 24.3726 16.5365 24.5044 16.7606C24.6362 16.9847 24.7057 17.24 24.7057 17.5C24.7057 17.76 24.6362 18.0153 24.5044 18.2394C24.3726 18.4635 24.1833 18.6482 23.956 18.7746L15.7252 23.3479C15.4587 23.4961 15.1581 23.572 14.8532 23.5682C14.5483 23.5644 14.2497 23.481 13.987 23.3263C13.7242 23.1716 13.5065 22.9509 13.3553 22.6861C13.2041 22.4213 13.1247 22.1216 13.125 21.8167V13.1833C13.1247 12.8784 13.2041 12.5787 13.3553 12.3139C13.5065 12.0491 13.7242 11.8285 13.987 11.6737C14.2497 11.519 14.5483 11.4356 14.8532 11.4318C15.1581 11.428 15.4587 11.5039 15.7252 11.6521Z" fill="#64748B"/>
</g>
</svg>
